<svg width="24" height="24" viewBox="0 0 24 24" fill="none" xmlns="http://www.w3.org/2000/svg">
<path d="M7 16.1317C7.71212 16.1317 8.40545 16.2166 9.08 16.3866C9.75454 16.5565 10.4248 16.8108 11.0909 17.1494V7.60177C10.4697 7.21405 9.8106 6.92326 9.11363 6.7294C8.41666 6.53554 7.71212 6.43861 7 6.43861C6.45454 6.43861 5.91273 6.49515 5.37454 6.60824C4.83636 6.72132 4.31757 6.89095 3.81818 7.11712V16.7132C4.34848 16.5194 4.87515 16.374 5.39818 16.2771C5.92121 16.1801 6.45515 16.1317 7 16.1317ZM12.9091 17.1494C13.5758 16.8102 14.2464 16.5559 14.9209 16.3866C15.5955 16.2173 16.2885 16.1323 17 16.1317C17.5454 16.1317 18.0797 16.1801 18.6027 16.2771C19.1258 16.374 19.6521 16.5194 20.1818 16.7132V7.11712C19.6818 6.89095 19.1627 6.72132 18.6245 6.60824C18.0864 6.49515 17.5448 6.43861 17 6.43861C16.2879 6.43861 15.5833 6.53554 14.8864 6.7294C14.1894 6.92326 13.5303 7.21405 12.9091 7.60177V17.1494ZM12 19.5C11.7879 19.5 11.587 19.4719 11.3973 19.4157C11.2076 19.3594 11.0297 19.2825 10.8636 19.185C10.2727 18.8134 9.65151 18.5349 9 18.3494C8.34848 18.164 7.68182 18.0709 7 18.0703C6.36363 18.0703 5.73879 18.1591 5.12545 18.3368C4.51212 18.5145 3.92485 18.7649 3.36364 19.088C3.04545 19.2657 2.73879 19.2577 2.44364 19.0638C2.14848 18.8699 2.00061 18.5872 2 18.2157V6.53554C2 6.35783 2.04182 6.18821 2.12545 6.02665C2.20909 5.8651 2.33394 5.74394 2.5 5.66317C3.19697 5.27544 3.92424 4.98465 4.68182 4.79079C5.43939 4.59693 6.21212 4.5 7 4.5C7.87879 4.5 8.73879 4.62116 9.58 4.86349C10.4212 5.10582 11.2279 5.4693 12 5.95396C12.7727 5.4693 13.5797 5.10582 14.4209 4.86349C15.2621 4.62116 16.1218 4.5 17 4.5C17.7879 4.5 18.5606 4.59693 19.3182 4.79079C20.0758 4.98465 20.803 5.27544 21.5 5.66317C21.6667 5.74394 21.7918 5.8651 21.8754 6.02665C21.9591 6.18821 22.0006 6.35783 22 6.53554V18.2157C22 18.5872 21.8524 18.8699 21.5573 19.0638C21.2621 19.2577 20.9551 19.2657 20.6364 19.088C20.0758 18.7649 19.4888 18.5145 18.8754 18.3368C18.2621 18.1591 17.637 18.0703 17 18.0703C16.3182 18.0703 15.6515 18.1633 15 18.3494C14.3485 18.5355 13.7273 18.814 13.1364 19.185C12.9697 19.2819 12.7918 19.3588 12.6027 19.4157C12.4136 19.4725 12.2127 19.5006 12 19.5ZM13.8182 9.12843C13.8182 8.98303 13.8676 8.83376 13.9664 8.68061C14.0651 8.52746 14.1748 8.42633 14.2954 8.37722C14.7348 8.21567 15.1742 8.0945 15.6136 8.01373C16.053 7.93295 16.5151 7.89257 17 7.89257C17.303 7.89257 17.6024 7.91292 17.8982 7.95363C18.1939 7.99434 18.4854 8.04669 18.7727 8.11066C18.9091 8.14297 19.0267 8.22375 19.1254 8.35299C19.2242 8.48223 19.2733 8.62762 19.2727 8.78917C19.2727 9.06381 19.1894 9.26575 19.0227 9.39499C18.8561 9.52423 18.6439 9.55654 18.3864 9.49192C18.1742 9.44345 17.9509 9.40727 17.7164 9.38336C17.4818 9.35945 17.243 9.34717 17 9.34652C16.6061 9.34652 16.2197 9.38691 15.8409 9.46769C15.4621 9.54846 15.0985 9.65347 14.75 9.78271C14.4773 9.8958 14.2539 9.88772 14.08 9.75848C13.9061 9.62924 13.8188 9.41922 13.8182 9.12843ZM13.8182 14.4596C13.8182 14.3142 13.8676 14.1649 13.9664 14.0118C14.0651 13.8586 14.1748 13.7575 14.2954 13.7084C14.7348 13.5468 15.1742 13.4257 15.6136 13.3449C16.053 13.2641 16.5151 13.2237 17 13.2237C17.303 13.2237 17.6024 13.2441 17.8982 13.2848C18.1939 13.3255 18.4854 13.3779 18.7727 13.4418C18.9091 13.4741 19.0267 13.5549 19.1254 13.6842C19.2242 13.8134 19.2733 13.9588 19.2727 14.1203C19.2727 14.395 19.1894 14.5969 19.0227 14.7262C18.8561 14.8554 18.6439 14.8877 18.3864 14.8231C18.1742 14.7746 17.9509 14.7384 17.7164 14.7145C17.4818 14.6906 17.243 14.6783 17 14.6777C16.6061 14.6777 16.2197 14.7142 15.8409 14.7872C15.4621 14.8603 15.0985 14.9611 14.75 15.0897C14.4773 15.2027 14.2539 15.1989 14.08 15.078C13.9061 14.9572 13.8188 14.751 13.8182 14.4596ZM13.8182 11.794C13.8182 11.6486 13.8676 11.4993 13.9664 11.3462C14.0651 11.193 14.1748 11.0919 14.2954 11.0428C14.7348 10.8813 15.1742 10.7601 15.6136 10.6793C16.053 10.5985 16.5151 10.5582 17 10.5582C17.303 10.5582 17.6024 10.5785 17.8982 10.6192C18.1939 10.6599 18.4854 10.7123 18.7727 10.7762C18.9091 10.8086 19.0267 10.8893 19.1254 11.0186C19.2242 11.1478 19.2733 11.2932 19.2727 11.4548C19.2727 11.7294 19.1894 11.9313 19.0227 12.0606C18.8561 12.1898 18.6439 12.2221 18.3864 12.1575C18.1742 12.109 17.9509 12.0729 17.7164 12.0489C17.4818 12.025 17.243 12.0128 17 12.0121C16.6061 12.0121 16.2197 12.0525 15.8409 12.1333C15.4621 12.214 15.0985 12.3191 14.75 12.4483C14.4773 12.5614 14.2539 12.5533 14.08 12.4241C13.9061 12.2948 13.8188 12.0848 13.8182 11.794Z" fill="#686A6D"/>
</svg>
