<svg width="24" height="24" viewBox="0 0 24 24" fill="none" xmlns="http://www.w3.org/2000/svg">
<path d="M7 17.2334C7.71212 17.2334 8.40545 17.3411 9.08 17.5563C9.75454 17.7716 10.4248 18.0937 11.0909 18.5226V6.42891C10.4697 5.9378 9.8106 5.56946 9.11363 5.32391C8.41666 5.07835 7.71212 4.95557 7 4.95557C6.45454 4.95557 5.91273 5.02719 5.37454 5.17043C4.83636 5.31368 4.31757 5.52854 3.81818 5.81502V17.9701C4.34848 17.7245 4.87515 17.5404 5.39818 17.4176C5.92121 17.2948 6.45515 17.2334 7 17.2334ZM12.9091 18.5226C13.5758 18.0929 14.2464 17.7708 14.9209 17.5563C15.5955 17.3419 16.2885 17.2342 17 17.2334C17.5454 17.2334 18.0797 17.2948 18.6027 17.4176C19.1258 17.5404 19.6521 17.7245 20.1818 17.9701V5.81502C19.6818 5.52854 19.1627 5.31368 18.6245 5.17043C18.0864 5.02719 17.5448 4.95557 17 4.95557C16.2879 4.95557 15.5833 5.07835 14.8864 5.32391C14.1894 5.56946 13.5303 5.9378 12.9091 6.42891V18.5226ZM12 21.5C11.7879 21.5 11.587 21.4644 11.3973 21.3932C11.2076 21.322 11.0297 21.2246 10.8636 21.101C10.2727 20.6303 9.65151 20.2775 9 20.0426C8.34848 19.8077 7.68182 19.6898 7 19.689C6.36363 19.689 5.73879 19.8015 5.12545 20.0266C4.51212 20.2517 3.92485 20.5689 3.36364 20.9782C3.04545 21.2033 2.73879 21.193 2.44364 20.9475C2.14848 20.7019 2.00061 20.3438 2 19.8732V5.07835C2 4.85326 2.04182 4.63839 2.12545 4.43376C2.20909 4.22913 2.33394 4.07566 2.5 3.97334C3.19697 3.48223 3.92424 3.11389 4.68182 2.86834C5.43939 2.62278 6.21212 2.5 7 2.5C7.87879 2.5 8.73879 2.65347 9.58 2.96042C10.4212 3.26737 11.2279 3.72779 12 4.34168C12.7727 3.72779 13.5797 3.26737 14.4209 2.96042C15.2621 2.65347 16.1218 2.5 17 2.5C17.7879 2.5 18.5606 2.62278 19.3182 2.86834C20.0758 3.11389 20.803 3.48223 21.5 3.97334C21.6667 4.07566 21.7918 4.22913 21.8754 4.43376C21.9591 4.63839 22.0006 4.85326 22 5.07835V19.8732C22 20.3438 21.8524 20.7019 21.5573 20.9475C21.2621 21.193 20.9551 21.2033 20.6364 20.9782C20.0758 20.5689 19.4888 20.2517 18.8754 20.0266C18.2621 19.8015 17.637 19.689 17 19.689C16.3182 19.689 15.6515 19.8069 15 20.0426C14.3485 20.2783 13.7273 20.6311 13.1364 21.101C12.9697 21.2237 12.7918 21.3211 12.6027 21.3932C12.4136 21.4652 12.2127 21.5008 12 21.5ZM13.8182 8.36268C13.8182 8.17851 13.8676 7.98943 13.9664 7.79544C14.0651 7.60145 14.1748 7.47335 14.2954 7.41114C14.7348 7.20651 15.1742 7.05304 15.6136 6.95072C16.053 6.84841 16.5151 6.79725 17 6.79725C17.303 6.79725 17.6024 6.82303 17.8982 6.8746C18.1939 6.92617 18.4854 6.99247 18.7727 7.0735C18.9091 7.11443 19.0267 7.21674 19.1254 7.38045C19.2242 7.54415 19.2733 7.72832 19.2727 7.93295C19.2727 8.28083 19.1894 8.53661 19.0227 8.70032C18.8561 8.86402 18.6439 8.90495 18.3864 8.8231C18.1742 8.76171 17.9509 8.71587 17.7164 8.68559C17.4818 8.6553 17.243 8.63975 17 8.63893C16.6061 8.63893 16.2197 8.69009 15.8409 8.7924C15.4621 8.89472 15.0985 9.02773 14.75 9.19143C14.4773 9.33467 14.2539 9.32444 14.08 9.16074C13.9061 8.99703 13.8188 8.73101 13.8182 8.36268ZM13.8182 15.1155C13.8182 14.9313 13.8676 14.7423 13.9664 14.5483C14.0651 14.3543 14.1748 14.2262 14.2954 14.164C14.7348 13.9593 15.1742 13.8059 15.6136 13.7035C16.053 13.6012 16.5151 13.5501 17 13.5501C17.303 13.5501 17.6024 13.5759 17.8982 13.6274C18.1939 13.679 18.4854 13.7453 18.7727 13.8263C18.9091 13.8673 19.0267 13.9696 19.1254 14.1333C19.2242 14.297 19.2733 14.4811 19.2727 14.6858C19.2727 15.0336 19.1894 15.2894 19.0227 15.4531C18.8561 15.6168 18.6439 15.6578 18.3864 15.5759C18.1742 15.5145 17.9509 15.4687 17.7164 15.4384C17.4818 15.4081 17.243 15.3926 17 15.3918C16.6061 15.3918 16.2197 15.438 15.8409 15.5305C15.4621 15.623 15.0985 15.7507 14.75 15.9136C14.4773 16.0568 14.2539 16.0519 14.08 15.8988C13.9061 15.7458 13.8188 15.4847 13.8182 15.1155ZM13.8182 11.7391C13.8182 11.5549 13.8676 11.3658 13.9664 11.1719C14.0651 10.9779 14.1748 10.8498 14.2954 10.7876C14.7348 10.5829 15.1742 10.4295 15.6136 10.3271C16.053 10.2248 16.5151 10.1737 17 10.1737C17.303 10.1737 17.6024 10.1994 17.8982 10.251C18.1939 10.3026 18.4854 10.3689 18.7727 10.4499C18.9091 10.4908 19.0267 10.5932 19.1254 10.7569C19.2242 10.9206 19.2733 11.1047 19.2727 11.3094C19.2727 11.6572 19.1894 11.913 19.0227 12.0767C18.8561 12.2404 18.6439 12.2814 18.3864 12.1995C18.1742 12.1381 17.9509 12.0923 17.7164 12.062C17.4818 12.0317 17.243 12.0162 17 12.0153C16.6061 12.0153 16.2197 12.0665 15.8409 12.1688C15.4621 12.2711 15.0985 12.4041 14.75 12.5678C14.4773 12.7111 14.2539 12.7009 14.08 12.5372C13.9061 12.3734 13.8188 12.1074 13.8182 11.7391Z" fill="#686A6D"/>
</svg>
