<?xml version="1.0" encoding="UTF-8"?>
<svg version="1.1" xmlns="http://www.w3.org/2000/svg" width="24" height="24">
<path d="M0 0 C6.6 0 13.2 0 20 0 C20 5.28 20 10.56 20 16 C12.25 16.375 12.25 16.375 9.82910156 16.47802734 C5.84458413 16.69983549 3.6445056 17.1777472 0 19 C0 12.73 0 6.46 0 0 Z M2 2 C2 5.96 2 9.92 2 14 C7.28 14 12.56 14 18 14 C18 10.04 18 6.08 18 2 C12.72 2 7.44 2 2 2 Z " fill="#686A6D" transform="translate(2,2)"/>
<path d="M0 0 C3.96 0 7.92 0 12 0 C12 0.66 12 1.32 12 2 C8.04 2 4.08 2 0 2 C0 1.34 0 0.68 0 0 Z " fill="#686A6D" transform="translate(6,9)"/>
<path d="M0 0 C3.96 0 7.92 0 12 0 C12 0.66 12 1.32 12 2 C8.04 2 4.08 2 0 2 C0 1.34 0 0.68 0 0 Z " fill="#686A6D" transform="translate(6,6)"/>
<path d="M0 0 C2.64 0 5.28 0 8 0 C8 0.66 8 1.32 8 2 C5.36 2 2.72 2 0 2 C0 1.34 0 0.68 0 0 Z " fill="#686A6D" transform="translate(6,12)"/>
</svg>
