<svg width="24" height="24" viewBox="0 0 24 24" fill="none" xmlns="http://www.w3.org/2000/svg">
<path d="M6 18.6968L3.7 20.9968C3.38334 21.3134 3.02067 21.3844 2.612 21.2098C2.20333 21.0351 1.99933 20.7224 2 20.2718V4.69678C2 4.14678 2.196 3.67611 2.588 3.28478C2.98 2.89344 3.45067 2.69744 4 2.69678H20C20.55 2.69678 21.021 2.89278 21.413 3.28478C21.805 3.67678 22.0007 4.14744 22 4.69678V16.6968C22 17.2468 21.8043 17.7178 21.413 18.1098C21.0217 18.5018 20.5507 18.6974 20 18.6968H6ZM7 14.6968H13C13.2833 14.6968 13.521 14.6008 13.713 14.4088C13.905 14.2168 14.0007 13.9794 14 13.6968C13.9993 13.4141 13.9033 13.1768 13.712 12.9848C13.5207 12.7928 13.2833 12.6968 13 12.6968H7C6.71667 12.6968 6.47933 12.7928 6.288 12.9848C6.09667 13.1768 6.00067 13.4141 6 13.6968C5.99933 13.9794 6.09534 14.2171 6.288 14.4098C6.48067 14.6024 6.718 14.6981 7 14.6968ZM7 11.6968H17C17.2833 11.6968 17.521 11.6008 17.713 11.4088C17.905 11.2168 18.0007 10.9794 18 10.6968C17.9993 10.4141 17.9033 10.1768 17.712 9.98478C17.5207 9.79278 17.2833 9.69678 17 9.69678H7C6.71667 9.69678 6.47933 9.79278 6.288 9.98478C6.09667 10.1768 6.00067 10.4141 6 10.6968C5.99933 10.9794 6.09534 11.2171 6.288 11.4098C6.48067 11.6024 6.718 11.6981 7 11.6968ZM7 8.69678H17C17.2833 8.69678 17.521 8.60078 17.713 8.40878C17.905 8.21678 18.0007 7.97944 18 7.69678C17.9993 7.41411 17.9033 7.17678 17.712 6.98478C17.5207 6.79278 17.2833 6.69678 17 6.69678H7C6.71667 6.69678 6.47933 6.79278 6.288 6.98478C6.09667 7.17678 6.00067 7.41411 6 7.69678C5.99933 7.97944 6.09534 8.21711 6.288 8.40978C6.48067 8.60244 6.718 8.69811 7 8.69678Z" fill="#42F09E"/>
</svg>
