<svg width="26" height="24" viewBox="0 0 26 24" fill="none" xmlns="http://www.w3.org/2000/svg">
<path d="M13 3C13.3301 3 13.5965 3.08954 13.834 3.26367L13.8398 3.26758L20.9648 8.41113L20.9736 8.41699C21.1395 8.5341 21.266 8.67928 21.3613 8.8623C21.4559 9.04403 21.5004 9.228 21.5 9.42676V19.7139C21.5 20.0621 21.384 20.3431 21.1084 20.6084C20.8315 20.8749 20.5221 21.0005 20.126 21H16.5625C16.4666 21 16.4399 20.978 16.4121 20.9512C16.3887 20.9285 16.3836 20.9168 16.3828 20.915L16.375 20.8545V15.1426C16.3749 14.5542 16.1555 14.0198 15.7256 13.6074C15.2996 13.1988 14.7646 13.0013 14.1895 13H11.8125C11.2356 13 10.699 13.1976 10.2725 13.6094C9.89922 13.9698 9.68455 14.4226 9.63574 14.9229L9.625 15.1406V20.8574C9.62497 20.8995 9.61786 20.9154 9.61719 20.917C9.61627 20.9192 9.6114 20.9304 9.58984 20.9512C9.5609 20.979 9.53315 21.0002 9.43945 21H5.875C5.47681 21 5.16738 20.8738 4.8916 20.6084C4.6513 20.3771 4.53215 20.1331 4.50586 19.8408L4.5 19.7129V9.42871C4.5 9.22924 4.54477 9.04465 4.63965 8.8623C4.73531 8.67861 4.86199 8.53305 5.02734 8.41602L5.03516 8.41113L12.1602 3.26758L12.166 3.26367C12.4035 3.08954 12.6699 3 13 3Z" fill="#42F09E" stroke="#42F09E" stroke-width="2"/>
</svg>
