<svg width="26" height="24" viewBox="0 0 26 24" fill="none" xmlns="http://www.w3.org/2000/svg">
<path d="M13 2.90039C13.3504 2.90039 13.6374 2.99557 13.8926 3.18262L13.8984 3.18652L21.0234 8.33008L21.0312 8.33496C21.2103 8.4613 21.3475 8.61833 21.4502 8.81543C21.5523 9.01146 21.6001 9.21157 21.5996 9.42676V19.7139C21.5996 20.0902 21.4724 20.397 21.1777 20.6807C20.882 20.9653 20.5478 21.1001 20.126 21.0996H16.5625C16.4425 21.0996 16.3895 21.0695 16.3418 21.0234C16.3062 20.989 16.287 20.9596 16.2793 20.9111L16.2754 20.8545V15.1426C16.2753 14.5807 16.066 14.0727 15.6562 13.6797C15.25 13.2901 14.7407 13.1009 14.1895 13.0996H11.8125C11.2596 13.0996 10.7485 13.2889 10.3418 13.6816C9.93511 14.0744 9.72599 14.5805 9.72461 15.1406V20.8574C9.72457 20.9427 9.70612 20.9782 9.65918 21.0234C9.61033 21.0705 9.55735 21.0999 9.43945 21.0996H5.875C5.45131 21.0996 5.11693 20.9643 4.82227 20.6807C4.56533 20.4334 4.43509 20.1676 4.40625 19.8516L4.40039 19.7129V9.42871C4.40039 9.21286 4.44839 9.01205 4.55078 8.81543C4.6537 8.61781 4.7914 8.46121 4.96973 8.33496L4.97656 8.33008L12.1016 3.18652L12.1074 3.18262C12.3626 2.99557 12.6496 2.90039 13 2.90039Z" stroke="#686A6D" stroke-width="1.8"/>
</svg>
