<svg width="26" height="24" viewBox="0 0 26 24" fill="none" xmlns="http://www.w3.org/2000/svg">
<g clip-path="url(#clip0_617_11213)">
<g clip-path="url(#clip1_617_11213)">
<path d="M13.001 14.75C14.2962 14.7492 15.5707 14.9018 16.8262 15.207C18.0787 15.5116 19.3171 15.9659 20.541 16.5752V16.5762C20.9791 16.8029 21.3294 17.1283 21.6016 17.5713C21.8681 18.0052 22.0006 18.4739 22 18.999V20C22 20.4204 21.862 20.7556 21.5586 21.0596C21.2561 21.3626 20.9216 21.5005 20.501 21.5H5.5C5.07974 21.5 4.74524 21.3623 4.44238 21.0596C4.17733 20.7945 4.03789 20.5043 4.00684 20.1533L4 19.999V19C4 18.4734 4.13306 18.0043 4.39941 17.5713C4.63787 17.1837 4.93623 16.886 5.30078 16.665L5.46094 16.5752C6.68415 15.9648 7.92135 15.5097 9.17285 15.207C10.4291 14.9032 11.7049 14.7508 13.001 14.75ZM13 3.5C14.1077 3.5 15.0311 3.88265 15.8242 4.67578C16.6173 5.46891 17 6.39233 17 7.5C17 8.60767 16.6173 9.53109 15.8242 10.3242C15.0311 11.1173 14.1077 11.5 13 11.5C11.8923 11.5 10.9689 11.1173 10.1758 10.3242C9.38266 9.53109 9 8.60767 9 7.5C9 6.39232 9.38265 5.46891 10.1758 4.67578C10.9689 3.88265 11.8923 3.5 13 3.5Z" fill="#42F09E" stroke="#42F09E" stroke-width="2"/>
</g>
</g>
<defs>
<clipPath id="clip0_617_11213">
<rect width="26" height="24" fill="white"/>
</clipPath>
<clipPath id="clip1_617_11213">
<rect width="25" height="25" fill="white" transform="translate(0.5 -0.5)"/>
</clipPath>
</defs>
</svg>
