<svg width="24" height="24" viewBox="0 0 24 24" fill="none" xmlns="http://www.w3.org/2000/svg">
<path d="M13 23C12.6852 23 12.4215 22.8933 12.2089 22.68C11.9963 22.4667 11.8896 22.203 11.8889 21.8889V14.1389C10.7037 14.1389 9.56481 13.9122 8.47222 13.4589C7.37963 13.0056 6.41667 12.3619 5.58333 11.5278C4.75 10.6937 4.11111 9.73074 3.66667 8.63889C3.22222 7.54704 3 6.40815 3 5.22222V4.11111C3 3.7963 3.10667 3.53259 3.32 3.32C3.53333 3.10741 3.79704 3.00074 4.11111 3H5.22222C6.38889 3 7.51852 3.22704 8.61111 3.68111C9.7037 4.13518 10.6667 4.77852 11.5 5.61111C12.0741 6.18518 12.5511 6.81481 12.9311 7.5C13.3111 8.18518 13.6026 8.91667 13.8056 9.69444C13.8981 9.56481 14 9.44 14.1111 9.32C14.2222 9.2 14.3426 9.07481 14.4722 8.94444C15.3056 8.11111 16.2685 7.46778 17.3611 7.01444C18.4537 6.56111 19.5926 6.33407 20.7778 6.33333H21.8889C22.2037 6.33333 22.4678 6.44 22.6811 6.65333C22.8944 6.86667 23.0007 7.13037 23 7.44444V8.55555C23 9.74074 22.7733 10.8796 22.32 11.9722C21.8667 13.0648 21.223 14.0278 20.3889 14.8611C19.5548 15.6944 18.5967 16.3333 17.5144 16.7778C16.4322 17.2222 15.2978 17.4444 14.1111 17.4444V21.8889C14.1111 22.2037 14.0044 22.4678 13.7911 22.6811C13.5778 22.8944 13.3141 23.0007 13 23ZM11.8889 11.8889C11.8889 11 11.7178 10.153 11.3756 9.34778C11.0333 8.54259 10.5467 7.82481 9.91555 7.19444C9.28444 6.56407 8.56741 6.07815 7.76444 5.73667C6.96148 5.39518 6.11407 5.2237 5.22222 5.22222C5.22222 6.11111 5.38889 6.96296 5.72222 7.77778C6.05555 8.59259 6.53704 9.31481 7.16667 9.94444C7.7963 10.5741 8.51852 11.0556 9.33333 11.3889C10.1481 11.7222 11 11.8889 11.8889 11.8889ZM14.1111 15.2222C15 15.2222 15.8474 15.0556 16.6533 14.7222C17.4593 14.3889 18.1767 13.9074 18.8056 13.2778C19.4344 12.6481 19.9207 11.9259 20.2644 11.1111C20.6081 10.2963 20.7793 9.44444 20.7778 8.55555C19.8889 8.55555 19.037 8.72704 18.2222 9.07C17.4074 9.41296 16.6852 9.89889 16.0556 10.5278C15.4259 11.1567 14.9444 11.8744 14.6111 12.6811C14.2778 13.4878 14.1111 14.3348 14.1111 15.2222Z" fill="#686A6D"/>
</svg>
