<svg viewBox="0 0 82 72" fill="none" xmlns="http://www.w3.org/2000/svg">
<mask id="path-1-inside-1_4548_96751" fill="white">
<path d="M36.3403 60.3611L36.3403 60.3317C35.8098 60.3028 35.2793 60.274 34.7782 60.2156C32.5677 59.9825 31.1221 58.5991 31.119 56.0352C31.1159 53.4419 32.5584 52.114 34.7683 51.8462C35.2692 51.7867 35.7996 51.7271 36.33 51.697C37.0668 51.6961 37.1544 50.9887 36.5647 50.7832C35.9458 50.7249 35.3563 50.6962 34.7669 50.6379C32.5564 50.4048 31.1109 49.1983 31.108 46.7523C31.105 44.2473 32.5475 42.9489 34.7575 42.7106C36.7022 42.502 38.9713 42.4109 40.9162 42.3496L46.1913 42.3434C48.3132 42.3408 49.7294 43.7537 49.7319 45.8755C49.7339 47.5553 49.2644 49.2651 47.939 49.8856C46.0806 48.3553 43.9284 47.5917 41.63 47.8302C40.9229 47.9194 40.9827 48.715 41.5721 48.6849C44.5777 48.4455 47.7624 50.0921 48.8846 52.0063C49.416 52.8308 49.7413 53.8029 49.7425 54.7754C49.7444 56.3963 49.2456 58.224 48.0092 59.3453C46.3573 58.0506 44.3232 57.4931 42.231 57.6134C41.5239 57.7616 41.731 58.4392 42.2615 58.4386C45.2082 58.2582 47.9216 60.0232 48.8957 61.4366C49.3976 62.1728 49.7231 63.3217 49.7246 64.53C49.7268 66.416 49.0508 67.9493 47.4608 69.071C46.1651 69.9566 44.9571 70.1349 40.5661 70.1106C38.2379 70.0839 37 69.9675 34.7895 69.6754C32.5789 69.3834 31.1333 68.1179 31.1303 65.554C31.1272 62.9607 32.5697 61.6917 34.7797 61.4239C35.2806 61.3644 35.7815 61.3048 36.3119 61.2747C37.1665 61.2737 37.1949 60.3601 36.3403 60.3611Z"/>
</mask>
<path d="M36.3403 60.3611L36.3403 60.3317C35.8098 60.3028 35.2793 60.274 34.7782 60.2156C32.5677 59.9825 31.1221 58.5991 31.119 56.0352C31.1159 53.4419 32.5584 52.114 34.7683 51.8462C35.2692 51.7867 35.7996 51.7271 36.33 51.697C37.0668 51.6961 37.1544 50.9887 36.5647 50.7832C35.9458 50.7249 35.3563 50.6962 34.7669 50.6379C32.5564 50.4048 31.1109 49.1983 31.108 46.7523C31.105 44.2473 32.5475 42.9489 34.7575 42.7106C36.7022 42.502 38.9713 42.4109 40.9162 42.3496L46.1913 42.3434C48.3132 42.3408 49.7294 43.7537 49.7319 45.8755C49.7339 47.5553 49.2644 49.2651 47.939 49.8856C46.0806 48.3553 43.9284 47.5917 41.63 47.8302C40.9229 47.9194 40.9827 48.715 41.5721 48.6849C44.5777 48.4455 47.7624 50.0921 48.8846 52.0063C49.416 52.8308 49.7413 53.8029 49.7425 54.7754C49.7444 56.3963 49.2456 58.224 48.0092 59.3453C46.3573 58.0506 44.3232 57.4931 42.231 57.6134C41.5239 57.7616 41.731 58.4392 42.2615 58.4386C45.2082 58.2582 47.9216 60.0232 48.8957 61.4366C49.3976 62.1728 49.7231 63.3217 49.7246 64.53C49.7268 66.416 49.0508 67.9493 47.4608 69.071C46.1651 69.9566 44.9571 70.1349 40.5661 70.1106C38.2379 70.0839 37 69.9675 34.7895 69.6754C32.5789 69.3834 31.1333 68.1179 31.1303 65.554C31.1272 62.9607 32.5697 61.6917 34.7797 61.4239C35.2806 61.3644 35.7815 61.3048 36.3119 61.2747C37.1665 61.2737 37.1949 60.3601 36.3403 60.3611Z" fill="#00C764"/>
<path d="M36.3403 60.3611L35.8403 60.3617L35.8409 60.8617L36.3409 60.8611L36.3403 60.3611ZM36.3403 60.3316L36.8403 60.3311L36.8397 59.8581L36.3674 59.8324L36.3403 60.3316ZM34.7782 60.2156L34.8361 59.719L34.8307 59.7184L34.7782 60.2156ZM34.7683 51.8462L34.7093 51.3497L34.7081 51.3498L34.7683 51.8462ZM36.33 51.697L36.3294 51.197L36.3156 51.197L36.3017 51.1978L36.33 51.697ZM36.5647 50.7832L36.7293 50.311L36.672 50.291L36.6115 50.2854L36.5647 50.7832ZM34.7669 50.6379L34.7144 51.1352L34.7177 51.1355L34.7669 50.6379ZM34.7575 42.7106L34.7042 42.2134L34.7039 42.2134L34.7575 42.7106ZM40.9162 42.3496L40.9157 41.8496L40.9081 41.8496L40.9005 41.8499L40.9162 42.3496ZM47.939 49.8856L47.6212 50.2716L47.865 50.4723L48.151 50.3384L47.939 49.8856ZM41.63 47.8302L41.5784 47.3327L41.5674 47.3341L41.63 47.8302ZM41.5721 48.6849L41.5977 49.1842L41.6047 49.1838L41.6118 49.1833L41.5721 48.6849ZM48.8846 52.0063L48.4532 52.2591L48.4586 52.2683L48.4643 52.2772L48.8846 52.0063ZM48.0092 59.3453L47.7007 59.7388L48.0327 59.999L48.3451 59.7157L48.0092 59.3453ZM42.231 57.6134L42.2023 57.1143L42.165 57.1164L42.1285 57.1241L42.231 57.6134ZM42.2615 58.4386L42.2621 58.9386L42.277 58.9385L42.292 58.9376L42.2615 58.4386ZM48.8957 61.4366L49.3089 61.155L49.3074 61.1529L48.8957 61.4366ZM47.4608 69.071L47.743 69.4838L47.749 69.4796L47.4608 69.071ZM40.5661 70.1106L40.5603 70.6106L40.5633 70.6106L40.5661 70.1106ZM34.7797 61.4239L34.7207 60.9274L34.7195 60.9275L34.7797 61.4239ZM36.3119 61.2747L36.3113 60.7747L36.2975 60.7747L36.2836 60.7755L36.3119 61.2747ZM36.3403 60.3611L36.8403 60.3605L36.8403 60.3311L36.3403 60.3316L35.8403 60.3322L35.8403 60.3617L36.3403 60.3611ZM36.3403 60.3316L36.3674 59.8324C35.8338 59.8034 35.3191 59.7752 34.8361 59.719L34.7782 60.2156L34.7204 60.7123C35.2395 60.7727 35.7858 60.8022 36.3131 60.8309L36.3403 60.3316ZM34.7782 60.2156L34.8307 59.7184C33.8161 59.6114 33.0263 59.2468 32.4892 58.6614C31.9537 58.0777 31.6204 57.2212 31.619 56.0347L31.119 56.0352L30.619 56.0358C30.6207 57.4132 31.0117 58.5302 31.7524 59.3375C32.4915 60.143 33.5298 60.5867 34.7258 60.7129L34.7782 60.2156ZM31.119 56.0352L31.619 56.0347C31.6176 54.8326 31.9492 53.9842 32.4812 53.4078C33.0162 52.8281 33.8065 52.4664 34.8285 52.3426L34.7683 51.8462L34.7081 51.3498C33.5202 51.4938 32.4843 51.93 31.7464 52.7296C31.0055 53.5323 30.6174 54.6445 30.619 56.0358L31.119 56.0352ZM34.7683 51.8462L34.8273 52.3427C35.3275 52.2833 35.8446 52.2253 36.3584 52.1962L36.33 51.697L36.3017 51.1978C35.7546 51.2288 35.2109 51.2901 34.7093 51.3497L34.7683 51.8462ZM36.33 51.697L36.3306 52.197C36.8542 52.1964 37.3339 51.9237 37.4352 51.4143C37.535 50.9119 37.2022 50.4759 36.7293 50.311L36.5647 50.7832L36.4001 51.2553C36.4594 51.276 36.4692 51.2972 36.4638 51.289C36.4581 51.2804 36.4473 51.2547 36.4544 51.2194C36.4576 51.2031 36.4638 51.1897 36.4704 51.1801C36.4769 51.1705 36.4817 51.1677 36.4796 51.1691C36.4757 51.1717 36.435 51.1969 36.3294 51.197L36.33 51.697ZM36.5647 50.7832L36.6115 50.2854C36.2958 50.2557 35.9883 50.2335 35.6911 50.2119C35.3921 50.1901 35.1035 50.1688 34.816 50.1404L34.7669 50.6379L34.7177 51.1355C35.0198 51.1654 35.3206 51.1875 35.6184 51.2092C35.918 51.2311 36.2146 51.2524 36.5179 51.281L36.5647 50.7832ZM34.7669 50.6379L34.8193 50.1407C33.7873 50.0319 32.9951 49.7021 32.4627 49.1709C31.9378 48.6473 31.6093 47.8719 31.608 46.7517L31.108 46.7523L30.608 46.7529C30.6096 48.0786 31.0053 49.1295 31.7565 49.8789C32.5001 50.6208 33.5359 51.0109 34.7144 51.1352L34.7669 50.6379ZM31.108 46.7523L31.608 46.7517C31.6066 45.5981 31.9357 44.7813 32.4648 44.2265C32.998 43.6672 33.7881 43.318 34.8111 43.2077L34.7575 42.7106L34.7039 42.2134C33.5169 42.3415 32.4807 42.7607 31.741 43.5364C30.9971 44.3166 30.6064 45.4015 30.608 46.7529L31.108 46.7523ZM34.7575 42.7106L34.8108 43.2077C36.7349 43.0013 38.9871 42.9106 40.932 42.8494L40.9162 42.3496L40.9005 41.8499C38.9555 41.9111 36.6696 42.0026 34.7042 42.2134L34.7575 42.7106ZM40.9162 42.3496L40.9168 42.8496L46.1919 42.8434L46.1913 42.3434L46.1907 41.8434L40.9157 41.8496L40.9162 42.3496ZM46.1913 42.3434L46.1919 42.8434C47.1392 42.8422 47.8901 43.1549 48.4032 43.6668C48.9163 44.1787 49.2308 44.9288 49.2319 45.8761L49.7319 45.8755L50.2319 45.875C50.2305 44.7004 49.8356 43.6832 49.1095 42.9589C48.3834 42.2345 47.3653 41.842 46.1907 41.8434L46.1913 42.3434ZM49.7319 45.8755L49.2319 45.8761C49.2329 46.6751 49.1209 47.4553 48.8683 48.0939C48.6168 48.7297 48.2408 49.1922 47.727 49.4327L47.939 49.8856L48.151 50.3384C48.9627 49.9585 49.4841 49.2559 49.7982 48.4617C50.1112 47.6703 50.233 46.7557 50.2319 45.875L49.7319 45.8755ZM47.939 49.8856L48.2568 49.4996C46.3118 47.898 44.0299 47.0785 41.5784 47.3328L41.63 47.8302L41.6816 48.3275C43.8269 48.1049 45.8494 48.8127 47.6212 50.2716L47.939 49.8856ZM41.63 47.8302L41.5674 47.3341C41.0103 47.4044 40.6143 47.8001 40.6149 48.3029C40.6151 48.5373 40.7083 48.772 40.8933 48.9434C41.0819 49.1181 41.3333 49.1977 41.5977 49.1842L41.5721 48.6849L41.5465 48.1855C41.5162 48.1871 41.5391 48.1785 41.5729 48.2098C41.6029 48.2377 41.6148 48.2735 41.6149 48.3017C41.6149 48.3312 41.6029 48.3494 41.5975 48.3549C41.5911 48.3615 41.6096 48.3367 41.6926 48.3262L41.63 47.8302ZM41.5721 48.6849L41.6118 49.1833C43.0143 49.0716 44.4748 49.4003 45.7208 49.9899C46.9733 50.5827 47.958 51.4144 48.4532 52.2591L48.8846 52.0063L49.3159 51.7534C48.689 50.6839 47.5203 49.7352 46.1485 49.0861C44.7702 48.4337 43.1355 48.0588 41.5324 48.1864L41.5721 48.6849ZM48.8846 52.0063L48.4643 52.2772C48.9513 53.0328 49.2414 53.9125 49.2425 54.776L49.7425 54.7754L50.2425 54.7748C50.2412 53.6934 49.8806 52.6288 49.3048 51.7354L48.8846 52.0063ZM49.7425 54.7754L49.2425 54.776C49.2443 56.3198 48.7654 57.9845 47.6733 58.9749L48.0092 59.3453L48.3451 59.7157C49.7258 58.4635 50.2445 56.4727 50.2425 54.7748L49.7425 54.7754ZM48.0092 59.3453L48.3176 58.9518C46.5598 57.574 44.4025 56.9877 42.2023 57.1143L42.231 57.6134L42.2597 58.1126C44.244 57.9985 46.1548 58.5272 47.7007 59.7388L48.0092 59.3453ZM42.231 57.6134L42.1285 57.1241C41.8754 57.1771 41.6443 57.2901 41.482 57.4811C41.3146 57.6778 41.2509 57.9236 41.2883 58.1599C41.3613 58.6217 41.7831 58.9391 42.2621 58.9386L42.2615 58.4386L42.2609 57.9386C42.2094 57.9386 42.2624 57.9176 42.276 58.0037C42.2793 58.0247 42.2786 58.0491 42.2717 58.0739C42.2647 58.0992 42.2533 58.1177 42.2438 58.1289C42.2249 58.1511 42.2331 58.1239 42.3336 58.1028L42.231 57.6134ZM42.2615 58.4386L42.292 58.9376C43.6581 58.854 44.9844 59.2214 46.0913 59.7854C47.2043 60.3526 48.0547 61.0974 48.4841 61.7204L48.8957 61.4366L49.3074 61.1529C48.7626 60.3624 47.7692 59.5181 46.5453 58.8944C45.3153 58.2677 43.8116 57.8428 42.2309 57.9395L42.2615 58.4386ZM48.8957 61.4366L48.4826 61.7183C48.9153 62.353 49.2232 63.3975 49.2246 64.5306L49.7246 64.53L50.2246 64.5294C50.223 63.2459 49.8799 61.9925 49.3089 61.155L48.8957 61.4366ZM49.7246 64.53L49.2246 64.5306C49.2266 66.2746 48.6136 67.6458 47.1725 68.6624L47.4608 69.071L47.749 69.4796C49.4881 68.2527 50.227 66.5575 50.2246 64.5294L49.7246 64.53ZM47.4608 69.071L47.1786 68.6582C46.0317 69.4422 44.9855 69.635 40.5688 69.6106L40.5661 70.1106L40.5633 70.6106C44.9287 70.6347 46.2986 70.4711 47.7429 69.4838L47.4608 69.071ZM40.5661 70.1106L40.5718 69.6107C38.2681 69.5842 37.0507 69.4699 34.855 69.1797L34.7895 69.6754L34.724 70.1711C36.9494 70.4652 38.2078 70.5836 40.5603 70.6106L40.5661 70.1106ZM34.7895 69.6754L34.855 69.1797C33.8249 69.0436 33.0312 68.6886 32.495 68.1227C31.964 67.5623 31.6317 66.7385 31.6303 65.5534L31.1303 65.554L30.6303 65.5546C30.6319 66.9333 31.024 68.0242 31.7691 68.8106C32.5091 69.5914 33.5434 70.0151 34.724 70.1711L34.7895 69.6754ZM31.1303 65.554L31.6303 65.5534C31.6289 64.3517 31.9602 63.5205 32.4889 62.9599C33.022 62.3947 33.8121 62.0448 34.8398 61.9203L34.7797 61.4239L34.7195 60.9275C33.5373 61.0708 32.5012 61.4893 31.7614 62.2738C31.017 63.063 30.6287 64.163 30.6303 65.5546L31.1303 65.554ZM34.7797 61.4239L34.8387 61.9204C35.3416 61.8606 35.8276 61.803 36.3403 61.7739L36.3119 61.2747L36.2836 60.7755C35.7354 60.8066 35.2196 60.8681 34.7207 60.9274L34.7797 61.4239ZM36.3119 61.2747L36.3125 61.7747C36.9062 61.774 37.4485 61.4235 37.4668 60.8327C37.4755 60.5549 37.3512 60.2953 37.1339 60.1169C36.9198 59.9411 36.64 59.8608 36.3397 59.8611L36.3403 60.3611L36.3409 60.8611C36.4679 60.861 36.505 60.8944 36.4993 60.8897C36.4968 60.8876 36.4876 60.8789 36.4794 60.8615C36.4712 60.8441 36.4667 60.8232 36.4673 60.8016C36.468 60.7802 36.4737 60.7628 36.48 60.7509C36.4863 60.739 36.4915 60.7357 36.4887 60.7378C36.4842 60.7414 36.4372 60.7746 36.3113 60.7747L36.3119 61.2747Z" fill="#00C764" fill-opacity="0.8" mask="url(#path-1-inside-1_4548_96751)"/>
<mask id="path-3-inside-2_4548_96751" fill="white">
<path d="M47.2345 5.89958C55.3425 0.137594 69.2276 -3.07449 79.464 4.23063C84.4232 7.76984 78.8425 9.84427 70.8869 10.7121C66.1843 11.2251 61.8741 12.4409 57.381 13.6623C52.8195 14.9022 49.4084 16.9911 46.9611 19.0431C49.1494 20.1049 50.754 21.7802 50.4298 24.2267C50.0596 27.1258 47.9053 27.9866 45.7589 27.8439C44.1711 27.7382 42.9926 26.8029 41.8849 25.6955C41.5894 25.3981 41.3131 25.1268 41.046 24.8654L40.6701 24.7804L39.9093 24.9513C41.2756 26.3843 43.1869 27.9896 46.0119 29.3674C48.5582 30.6001 50.905 33.0598 50.3097 37.1252C49.6986 41.4261 45.0934 43.6005 39.9181 43.256C34.5961 42.9017 30.587 40.1248 30.2062 35.6398C29.9432 32.4916 31.1801 29.443 35.091 29.7033C38.7958 29.95 40.6541 33.0867 42.0011 35.923C42.1639 36.1405 42.7067 35.9693 42.5851 35.5773C41.6321 33.033 39.4462 29.9339 36.2726 29.2502C32.9578 28.4683 30.9558 26.5927 31.1847 23.1525C31.3089 21.2872 32.4018 19.8137 34.1339 18.8449C31.7054 16.8581 28.3704 14.8619 23.9572 13.6623C19.4641 12.4409 15.1539 11.2251 10.4513 10.7121C2.49572 9.84427 -3.08481 7.76978 1.87417 4.23063C12.1105 -3.07446 25.9957 0.137646 34.1037 5.89958C37.3782 8.22664 39.413 11.9976 40.6691 15.5246C41.9252 11.9975 43.96 8.22665 47.2345 5.89958Z"/>
</mask>
<path d="M47.2345 5.89958C55.3425 0.137594 69.2276 -3.07449 79.464 4.23063C84.4232 7.76984 78.8425 9.84427 70.8869 10.7121C66.1843 11.2251 61.8741 12.4409 57.381 13.6623C52.8195 14.9022 49.4084 16.9911 46.9611 19.0431C49.1494 20.1049 50.754 21.7802 50.4298 24.2267C50.0596 27.1258 47.9053 27.9866 45.7589 27.8439C44.1711 27.7382 42.9926 26.8029 41.8849 25.6955C41.5894 25.3981 41.3131 25.1268 41.046 24.8654L40.6701 24.7804L39.9093 24.9513C41.2756 26.3843 43.1869 27.9896 46.0119 29.3674C48.5582 30.6001 50.905 33.0598 50.3097 37.1252C49.6986 41.4261 45.0934 43.6005 39.9181 43.256C34.5961 42.9017 30.587 40.1248 30.2062 35.6398C29.9432 32.4916 31.1801 29.443 35.091 29.7033C38.7958 29.95 40.6541 33.0867 42.0011 35.923C42.1639 36.1405 42.7067 35.9693 42.5851 35.5773C41.6321 33.033 39.4462 29.9339 36.2726 29.2502C32.9578 28.4683 30.9558 26.5927 31.1847 23.1525C31.3089 21.2872 32.4018 19.8137 34.1339 18.8449C31.7054 16.8581 28.3704 14.8619 23.9572 13.6623C19.4641 12.4409 15.1539 11.2251 10.4513 10.7121C2.49572 9.84427 -3.08481 7.76978 1.87417 4.23063C12.1105 -3.07446 25.9957 0.137646 34.1037 5.89958C37.3782 8.22664 39.413 11.9976 40.6691 15.5246C41.9252 11.9975 43.96 8.22665 47.2345 5.89958Z" fill="#00C764"/>
<path d="M47.2345 5.89958L46.9449 5.49201V5.49201L47.2345 5.89958ZM79.464 4.23063L79.7545 3.82365L79.7545 3.82364L79.464 4.23063ZM70.8869 10.7121L70.8326 10.215V10.215L70.8869 10.7121ZM57.381 13.6623L57.5122 14.1448V14.1448L57.381 13.6623ZM46.9611 19.0431L46.6398 18.66L46.0483 19.156L46.7428 19.493L46.9611 19.0431ZM50.4298 24.2267L49.9342 24.1611L49.9339 24.1634L50.4298 24.2267ZM45.7589 27.8439L45.7257 28.3428L45.7258 28.3428L45.7589 27.8439ZM41.8849 25.6955L41.5302 26.0479L41.5314 26.0491L41.8849 25.6955ZM41.046 24.8654L41.3958 24.5081L41.2945 24.4089L41.1563 24.3777L41.046 24.8654ZM40.6701 24.7804L40.7803 24.2927L40.6704 24.2679L40.5605 24.2926L40.6701 24.7804ZM39.9093 24.9513L39.7997 24.4635L38.9379 24.6571L39.5475 25.2964L39.9093 24.9513ZM46.0119 29.3673L45.7927 29.8168L45.794 29.8174L46.0119 29.3673ZM50.3097 37.1252L49.815 37.0527L49.8147 37.0548L50.3097 37.1252ZM39.9181 43.256L39.8849 43.7549H39.8849L39.9181 43.256ZM30.2062 35.6398L29.7079 35.6814L29.708 35.6821L30.2062 35.6398ZM35.091 29.7033L35.1242 29.2044L35.1242 29.2044L35.091 29.7033ZM42.0011 35.923L41.5495 36.1375L41.5709 36.1826L41.6008 36.2226L42.0011 35.923ZM42.5851 35.5773L43.0627 35.4292L43.0584 35.4154L43.0533 35.4019L42.5851 35.5773ZM36.2726 29.2502L36.1578 29.7369L36.1673 29.7389L36.2726 29.2502ZM31.1847 23.1525L30.6858 23.1193L30.6858 23.1193L31.1847 23.1525ZM34.1339 18.8449L34.378 19.2813L35.0189 18.9228L34.4505 18.4579L34.1339 18.8449ZM23.9572 13.6623L23.826 14.1448V14.1448L23.9572 13.6623ZM10.4513 10.7121L10.5055 10.215H10.5055L10.4513 10.7121ZM1.87417 4.23063L1.58373 3.82364L1.58372 3.82365L1.87417 4.23063ZM34.1037 5.89958L34.3933 5.49201L34.3933 5.49201L34.1037 5.89958ZM40.6691 15.5246L40.1981 15.6923L40.6691 17.015L41.1401 15.6923L40.6691 15.5246ZM47.2345 5.89958L47.5242 6.30714C55.5345 0.614479 69.1762 -2.49697 79.1736 4.63762L79.464 4.23063L79.7545 3.82364C69.2791 -3.65202 55.1504 -0.33929 46.9449 5.49201L47.2345 5.89958ZM79.464 4.23063L79.1736 4.63762C80.3932 5.508 80.803 6.1833 80.836 6.64968C80.8655 7.06633 80.5959 7.53999 79.7599 8.0452C78.9408 8.54021 77.7113 8.97704 76.1651 9.34449C74.627 9.71006 72.8082 9.99953 70.8326 10.215L70.8869 10.7121L70.9411 11.2091C72.9434 10.9907 74.8056 10.6955 76.3963 10.3174C77.9791 9.94122 79.3265 9.47553 80.2771 8.90106C81.2108 8.33678 81.9038 7.574 81.8335 6.57916C81.7667 5.63407 81.0145 4.72287 79.7545 3.82365L79.464 4.23063ZM70.8869 10.7121L70.8326 10.215C66.0835 10.7331 61.7332 11.9611 57.2499 13.1798L57.381 13.6623L57.5122 14.1448C62.0151 12.9207 66.2852 11.717 70.9411 11.2091L70.8869 10.7121ZM57.381 13.6623L57.2499 13.1798C52.6099 14.4411 49.1352 16.5676 46.6398 18.66L46.9611 19.0431L47.2823 19.4263C49.6815 17.4146 53.0292 15.3634 57.5122 14.1448L57.381 13.6623ZM46.9611 19.0431L46.7428 19.493C48.8533 20.517 50.2161 22.033 49.9342 24.1611L50.4298 24.2267L50.9255 24.2924C51.2919 21.5274 49.4455 19.6929 47.1794 18.5933L46.9611 19.0431ZM50.4298 24.2267L49.9339 24.1634C49.7649 25.4862 49.2026 26.2879 48.4862 26.7579C47.7523 27.2395 46.7962 27.4118 45.7921 27.345L45.7589 27.8439L45.7258 28.3428C46.8681 28.4188 48.0624 28.232 49.0347 27.594C50.0247 26.9446 50.7245 25.8663 50.9258 24.2901L50.4298 24.2267ZM45.7589 27.8439L45.7921 27.345C44.3976 27.2522 43.3318 26.435 42.2384 25.3419L41.8849 25.6955L41.5314 26.0491C42.6534 27.1708 43.9446 28.2243 45.7257 28.3428L45.7589 27.8439ZM41.8849 25.6955L42.2396 25.3431C41.9415 25.043 41.6631 24.7697 41.3958 24.5081L41.046 24.8654L40.6963 25.2227C40.9631 25.4839 41.2374 25.7531 41.5302 26.0479L41.8849 25.6955ZM41.046 24.8654L41.1563 24.3777L40.7803 24.2927L40.6701 24.7804L40.5599 25.2681L40.9358 25.3531L41.046 24.8654ZM40.6701 24.7804L40.5605 24.2926L39.7997 24.4635L39.9093 24.9513L40.0189 25.4392L40.7797 25.2683L40.6701 24.7804ZM39.9093 24.9513L39.5475 25.2964C40.9485 26.7657 42.9068 28.4093 45.7927 29.8168L46.0119 29.3673L46.231 28.9179C43.467 27.57 41.6027 26.0028 40.2712 24.6063L39.9093 24.9513ZM46.0119 29.3673L45.794 29.8174C47.008 30.4052 48.1511 31.2747 48.9198 32.4566C49.6823 33.6292 50.0955 35.1373 49.815 37.0527L50.3097 37.1252L50.8044 37.1976C51.1193 35.0477 50.6567 33.2933 49.7581 31.9115C48.8656 30.5391 47.562 29.5623 46.2297 28.9173L46.0119 29.3673ZM50.3097 37.1252L49.8147 37.0548C49.5349 39.0236 48.3459 40.5191 46.5832 41.4952C44.8107 42.4768 42.4661 42.9245 39.9513 42.7571L39.9181 43.256L39.8849 43.7549C42.5454 43.932 45.091 43.4647 47.0677 42.37C49.0543 41.2699 50.4734 39.5277 50.8047 37.1955L50.3097 37.1252ZM39.9181 43.256L39.9513 42.7571C34.7555 42.4112 31.0556 39.7328 30.7044 35.5975L30.2062 35.6398L29.708 35.6821C30.1185 40.5167 34.4367 43.3922 39.8849 43.7549L39.9181 43.256ZM30.2062 35.6398L30.7045 35.5982C30.5782 34.0872 30.8199 32.6681 31.4966 31.6749C32.1496 30.7165 33.2559 30.0823 35.0578 30.2022L35.091 29.7033L35.1242 29.2044C33.0152 29.064 31.5476 29.824 30.6702 31.1118C29.8165 32.3649 29.5712 34.0442 29.7079 35.6814L30.2062 35.6398ZM35.091 29.7033L35.0577 30.2022C38.4449 30.4277 40.1938 33.2829 41.5495 36.1375L42.0011 35.923L42.4528 35.7085C41.1145 32.8904 39.1467 29.4723 35.1242 29.2044L35.091 29.7033ZM42.0011 35.923L41.6008 36.2226C41.7448 36.4149 41.9512 36.4927 42.12 36.5125C42.2892 36.5323 42.4604 36.501 42.6082 36.4332C42.7567 36.3651 42.9109 36.246 43.0087 36.0635C43.1122 35.8705 43.1302 35.647 43.0627 35.4292L42.5851 35.5773L42.1075 35.7254C42.1008 35.7036 42.0966 35.6485 42.1274 35.5911C42.1525 35.5441 42.1836 35.5278 42.1913 35.5243C42.1983 35.521 42.2109 35.5163 42.2363 35.5193C42.2614 35.5222 42.3389 35.5399 42.4014 35.6234L42.0011 35.923ZM42.5851 35.5773L43.0533 35.4019C42.0775 32.7969 39.7999 29.4987 36.3779 28.7614L36.2726 29.2502L36.1673 29.7389C39.0926 30.3692 41.1866 33.2691 42.1169 35.7527L42.5851 35.5773ZM36.2726 29.2502L36.3874 28.7635C34.7882 28.3863 33.5674 27.7589 32.7734 26.866C31.9905 25.9855 31.5765 24.7953 31.6836 23.1857L31.1847 23.1525L30.6858 23.1193C30.564 24.95 31.0366 26.4176 32.0261 27.5305C33.0046 28.6309 34.4422 29.3322 36.1578 29.7368L36.2726 29.2502ZM31.1847 23.1525L31.6836 23.1857C31.7943 21.523 32.7614 20.1854 34.378 19.2813L34.1339 18.8449L33.8899 18.4085C32.0421 19.442 30.8235 21.0514 30.6858 23.1193L31.1847 23.1525ZM34.1339 18.8449L34.4505 18.4579C31.9746 16.4323 28.5776 14.4001 24.0883 13.1798L23.9572 13.6623L23.826 14.1448C28.1632 15.3237 31.4362 17.284 33.8173 19.2319L34.1339 18.8449ZM23.9572 13.6623L24.0883 13.1798C19.605 11.9611 15.2547 10.7331 10.5055 10.215L10.4513 10.7121L10.3971 11.2091C15.053 11.717 19.3231 12.9207 23.826 14.1448L23.9572 13.6623ZM10.4513 10.7121L10.5055 10.215C8.52999 9.99953 6.71127 9.71006 5.17313 9.34449C3.62702 8.97703 2.3975 8.5402 1.57839 8.04518C0.7424 7.53997 0.472836 7.0663 0.502282 6.64965C0.535242 6.18327 0.945094 5.50798 2.16463 4.63761L1.87417 4.23063L1.58372 3.82365C0.323763 4.72286 -0.428438 5.63406 -0.49523 6.57915C-0.565537 7.57397 0.127447 8.33676 1.06117 8.90104C2.01177 9.47551 3.35912 9.94122 4.9419 10.3174C6.53265 10.6955 8.39485 10.9907 10.3971 11.2091L10.4513 10.7121ZM1.87417 4.23063L2.16462 4.63762C12.162 -2.49693 25.8036 0.61453 33.814 6.30714L34.1037 5.89958L34.3933 5.49201C26.1878 -0.339237 12.059 -3.65198 1.58373 3.82364L1.87417 4.23063ZM34.1037 5.89958L33.814 6.30714C36.9665 8.54749 38.9562 12.2053 40.1981 15.6923L40.6691 15.5246L41.1401 15.3568C39.8698 11.7898 37.7898 7.90579 34.3933 5.49201L34.1037 5.89958ZM40.6691 15.5246L41.1401 15.6923C42.3819 12.2053 44.3717 8.5475 47.5242 6.30714L47.2345 5.89958L46.9449 5.49201C43.5484 7.90581 41.4684 11.7898 40.1981 15.3568L40.6691 15.5246Z" fill="#00C764" fill-opacity="0.8" mask="url(#path-3-inside-2_4548_96751)"/>
</svg>
