<svg width="18" height="18" viewBox="0 0 18 18" fill="none" xmlns="http://www.w3.org/2000/svg">
<path d="M16.095 2.46806C15.1325 2.83554 12.1889 3.67174 8.99907 3.67424C5.80924 3.67174 2.86565 2.83554 1.9032 2.46806C1.72571 2.40056 1.54447 2.57305 1.55947 2.76179C2.39192 4.96542 5.40926 7.34155 8.99907 7.34655C12.5889 7.34155 15.6062 4.96417 16.4387 2.76179C16.4537 2.57305 16.2724 2.40056 16.095 2.46806Z" fill="#424242"/>
<path d="M13.5031 4.94825C13.1619 4.75326 12.4744 4.61702 11.8557 4.58452C10.4508 4.50827 9.99207 4.9795 8.99837 4.982C8.00468 4.9795 7.54595 4.50827 6.14102 4.58452C5.52231 4.61827 4.83484 4.75451 4.49361 4.94825C3.83614 5.32323 3.95114 5.77445 4.42736 6.05819C5.66855 6.7969 7.26221 7.57686 8.88713 7.57936C8.92463 7.57936 8.96088 7.57811 8.99837 7.57686C9.03587 7.57686 9.07212 7.57936 9.10962 7.57936C10.7345 7.57686 12.3282 6.7969 13.5694 6.05819C14.0456 5.77445 14.1594 5.32323 13.5031 4.94825Z" fill="#C41B59"/>
<path d="M14.8599 10.5851C14.4786 6.83209 13.8362 5.86947 13.1762 5.51817C12.3387 5.07312 11.555 5.14063 11.1301 5.22814C9.97011 5.46942 9.76512 5.67569 9.16516 5.67569C8.56519 5.67569 8.24895 5.47067 7.09026 5.22939C6.66529 5.14063 5.88158 5.07312 5.04412 5.51942C4.38416 5.87072 3.74169 6.83334 3.36046 10.5863C3.10547 13.0929 4.82663 15.6532 9.10641 15.6532C9.10766 15.6532 9.10891 15.6532 9.11016 15.6532C9.11141 15.6532 9.11266 15.6532 9.11391 15.6532C13.3937 15.6519 15.1136 13.0916 14.8599 10.5851Z" fill="url(#paint0_radial_3720_64021)"/>
<path d="M9.00027 5.16349C8.62029 5.16349 6.19417 5.02347 6.93163 5.20224C7.80034 5.41352 8.09907 5.91483 8.41656 6.64617C9.00028 7.98884 8.84653 11.4018 9.07902 11.4255C9.31151 11.4505 9.52775 9.59404 9.57649 7.34626C9.61399 5.6173 10.7339 5.19724 11.4276 5.16974C11.4289 5.17099 9.38025 5.16349 9.00027 5.16349Z" fill="url(#paint1_linear_3720_64021)"/>
<path opacity="0.75" d="M3.78125 10.7618C3.78125 8.81818 4.60746 11.6968 9.10597 11.6968C13.6045 11.6968 14.3707 8.97692 14.3707 10.9193C14.3707 12.8617 11.9246 14.5929 9.10597 14.5929C6.28737 14.5929 3.78125 12.7042 3.78125 10.7618Z" fill="url(#paint2_radial_3720_64021)"/>
<defs>
<radialGradient id="paint0_radial_3720_64021" cx="0" cy="0" r="1" gradientUnits="userSpaceOnUse" gradientTransform="translate(9.36943 4.50741) scale(9.34334 10.0963)">
<stop offset="0.053" stop-color="#E92C6C"/>
<stop offset="1" stop-color="#F06A97"/>
</radialGradient>
<linearGradient id="paint1_linear_3720_64021" x1="9.11091" y1="5.92041" x2="9.11091" y2="12.1208" gradientUnits="userSpaceOnUse">
<stop stop-color="#C41B59"/>
<stop offset="1" stop-color="#C41B59" stop-opacity="0"/>
</linearGradient>
<radialGradient id="paint2_radial_3720_64021" cx="0" cy="0" r="1" gradientUnits="userSpaceOnUse" gradientTransform="translate(9.1278 9.82306) scale(8.76233 4.60513)">
<stop offset="0.6723" stop-color="#FF9CBD" stop-opacity="0"/>
<stop offset="1" stop-color="#FF9CBD"/>
</radialGradient>
</defs>
</svg>
