<svg width="24" height="24" viewBox="0 0 24 24" fill="none" xmlns="http://www.w3.org/2000/svg">
<path d="M3.54922 12L10.8992 19.35C11.1492 19.6 11.2702 19.8916 11.2622 20.225C11.2542 20.5583 11.1249 20.85 10.8742 21.1C10.6236 21.35 10.3319 21.475 9.99922 21.475C9.66655 21.475 9.37489 21.35 9.12422 21.1L1.42422 13.425C1.22422 13.225 1.07422 13 0.974219 12.75C0.874219 12.5 0.824219 12.25 0.824219 12C0.824219 11.75 0.874219 11.5 0.974219 11.25C1.07422 11 1.22422 10.775 1.42422 10.575L9.12422 2.87497C9.37422 2.62497 9.67022 2.50397 10.0122 2.51197C10.3542 2.51997 10.6499 2.6493 10.8992 2.89997C11.1486 3.15064 11.2736 3.4423 11.2742 3.77497C11.2749 4.10764 11.1499 4.3993 10.8992 4.64997L3.54922 12Z" fill="#242628"/>
</svg>
