<svg width="24" height="25" viewBox="0 0 24 25" fill="none" xmlns="http://www.w3.org/2000/svg">
<path d="M20.75 21.25C21.1042 21.25 21.4008 21.13 21.64 20.89C21.8792 20.65 21.9992 20.3533 22 20C22.0008 19.6467 21.8808 19.35 21.64 19.11C21.3992 18.87 21.1025 18.75 20.75 18.75H19.5V10C19.5 8.27083 18.9792 6.73458 17.9375 5.39125C16.8958 4.04792 15.5417 3.1675 13.875 2.75V1.875C13.875 1.35417 13.6925 0.911669 13.3275 0.547503C12.9625 0.183336 12.52 0.000836174 12 2.84091e-06C11.48 -0.000830492 11.0371 0.181669 10.6713 0.547503C10.3054 0.913336 10.1233 1.35584 10.125 1.875V2.75C8.45833 3.16667 7.10417 4.04709 6.0625 5.39125C5.02084 6.73542 4.5 8.27167 4.5 10V18.75H3.25C2.89584 18.75 2.59875 18.87 2.35876 19.11C2.11876 19.35 1.99917 19.6467 2.00001 20C2.00084 20.3533 2.12084 20.6504 2.36 20.8912C2.59917 21.1321 2.89584 21.2517 3.25 21.25H20.75ZM12 25C12.6875 25 13.2758 24.7554 13.765 24.2662C14.2542 23.7771 14.4992 23.1883 14.5 22.5H9.5C9.5 23.1875 9.74458 23.7762 10.2338 24.2662C10.7229 24.7562 11.3117 25.0008 12 25Z" fill="#686A6D"/>
<circle cx="2" cy="2" r="2" transform="matrix(-1 0 0 1 20 3)" fill="#FF6700"/>
</svg>
