<svg width="24" height="24" viewBox="0 0 24 24" fill="none" xmlns="http://www.w3.org/2000/svg">
<g clip-path="url(#clip0_4358_61829)">
<path d="M18.3333 7.9C18.3333 6.20261 17.6661 4.57475 16.4783 3.37452C15.2906 2.17428 13.6797 1.5 12 1.5C10.3203 1.5 8.70939 2.17428 7.52166 3.37452C6.33393 4.57475 5.66667 6.20261 5.66667 7.9C5.66667 15.3667 2.5 17.5 2.5 17.5H21.5C21.5 17.5 18.3333 15.3667 18.3333 7.9Z" stroke="currentColor" stroke-width="2.5" stroke-linecap="round" stroke-linejoin="round"/>
<path d="M13.5 21.5C13.3476 21.8042 13.1288 22.0566 12.8655 22.2321C12.6023 22.4076 12.3038 22.5 12 22.5C11.6962 22.5 11.3977 22.4076 11.1345 22.2321C10.8712 22.0566 10.6524 21.8042 10.5 21.5" stroke="currentColor" stroke-width="2.5" stroke-linecap="round" stroke-linejoin="round"/>
</g>
<defs>
<clipPath id="clip0_4358_61829">
<rect width="24" height="24" fill="white"/>
</clipPath>
</defs>
</svg>
