<svg width="24" height="24" viewBox="0 0 24 24" fill="none" xmlns="http://www.w3.org/2000/svg">
<g clip-path="url(#clip0_3009_19035)">
<path d="M3.6875 20.4C3.35105 20.4 3.06921 20.2848 2.842 20.0544C2.6148 19.824 2.5008 19.5392 2.5 19.2C2.49921 18.8608 2.61321 18.576 2.842 18.3456C3.0708 18.1152 3.35263 18 3.6875 18H4.875V9.6C4.875 7.94 5.36979 6.4652 6.35938 5.1756C7.34896 3.886 8.63542 3.0408 10.2188 2.64V1.8C10.2188 1.3 10.3921 0.875203 10.7389 0.525603C11.0856 0.176003 11.506 0.000802727 12 2.72727e-06C12.494 -0.000797273 12.9148 0.174403 13.2623 0.525603C13.6099 0.876803 13.7828 1.3016 13.7812 1.8V2.64C15.3646 3.04 16.651 3.8852 17.6406 5.1756C18.6302 6.466 19.125 7.9408 19.125 9.6V18H20.3125C20.649 18 20.9312 18.1152 21.1592 18.3456C21.3872 18.576 21.5008 18.8608 21.5 19.2C21.4992 19.5392 21.3852 19.8244 21.158 20.0556C20.9308 20.2868 20.649 20.4016 20.3125 20.4H3.6875ZM12 24C11.3469 24 10.788 23.7652 10.3233 23.2956C9.85854 22.826 9.62579 22.2608 9.625 21.6H14.375C14.375 22.26 14.1426 22.8252 13.6779 23.2956C13.2132 23.766 12.6539 24.0008 12 24ZM7.25 18H16.75V9.6C16.75 8.28 16.2849 7.15 15.3547 6.21C14.4245 5.27 13.3062 4.8 12 4.8C10.6938 4.8 9.57552 5.27 8.64531 6.21C7.71511 7.15 7.25 8.28 7.25 9.6V18Z" fill="#4B4C50"/>
</g>
<defs>
<clipPath id="clip0_3009_19035">
<rect width="24" height="24" fill="white"/>
</clipPath>
</defs>
</svg>
