<svg width="24" height="25" viewBox="0 0 24 25" fill="none" xmlns="http://www.w3.org/2000/svg">
<path d="M3.25 21.25C2.89584 21.25 2.59917 21.13 2.36 20.89C2.12084 20.65 2.00084 20.3533 2 20C1.99917 19.6467 2.11917 19.35 2.36 19.11C2.60084 18.87 2.8975 18.75 3.25 18.75H4.5V10C4.5 8.27083 5.02084 6.73458 6.0625 5.39125C7.10417 4.04792 8.45833 3.1675 10.125 2.75V1.875C10.125 1.35417 10.3075 0.911669 10.6725 0.547503C11.0375 0.183336 11.48 0.000836174 12 2.84091e-06C12.52 -0.000830492 12.9629 0.181669 13.3287 0.547503C13.6946 0.913336 13.8767 1.35584 13.875 1.875V2.75C15.5417 3.16667 16.8958 4.04709 17.9375 5.39125C18.9792 6.73542 19.5 8.27167 19.5 10V18.75H20.75C21.1042 18.75 21.4012 18.87 21.6412 19.11C21.8812 19.35 22.0008 19.6467 22 20C21.9992 20.3533 21.8792 20.6504 21.64 20.8912C21.4008 21.1321 21.1042 21.2517 20.75 21.25H3.25ZM12 25C11.3125 25 10.7242 24.7554 10.235 24.2662C9.74583 23.7771 9.50083 23.1883 9.5 22.5H14.5C14.5 23.1875 14.2554 23.7762 13.7662 24.2662C13.2771 24.7562 12.6883 25.0008 12 25Z" fill="currentColor"/>
</svg>
