<svg width="24" height="24" viewBox="0 0 24 24" fill="none" xmlns="http://www.w3.org/2000/svg">
<g clip-path="url(#clip0_5109_52924)">
<path d="M12.3 14.4C11.96 14.4 11.6752 14.2848 11.4456 14.0544C11.2152 13.8248 11.1 13.54 11.1 13.2C11.1 12.86 11.2152 12.5748 11.4456 12.3444C11.6752 12.1148 11.96 12 12.3 12C12.64 12 12.9252 12.1148 13.1556 12.3444C13.3852 12.5748 13.5 12.86 13.5 13.2C13.5 13.54 13.3852 13.8248 13.1556 14.0544C12.9252 14.2848 12.64 14.4 12.3 14.4ZM7.5 14.4C7.16 14.4 6.8748 14.2848 6.6444 14.0544C6.4148 13.8248 6.3 13.54 6.3 13.2C6.3 12.86 6.4148 12.5748 6.6444 12.3444C6.8748 12.1148 7.16 12 7.5 12C7.84 12 8.1252 12.1148 8.3556 12.3444C8.5852 12.5748 8.7 12.86 8.7 13.2C8.7 13.54 8.5852 13.8248 8.3556 14.0544C8.1252 14.2848 7.84 14.4 7.5 14.4ZM17.1 14.4C16.76 14.4 16.4752 14.2848 16.2456 14.0544C16.0152 13.8248 15.9 13.54 15.9 13.2C15.9 12.86 16.0152 12.5748 16.2456 12.3444C16.4752 12.1148 16.76 12 17.1 12C17.44 12 17.7248 12.1148 17.9544 12.3444C18.1848 12.5748 18.3 12.86 18.3 13.2C18.3 13.54 18.1848 13.8248 17.9544 14.0544C17.7248 14.2848 17.44 14.4 17.1 14.4ZM12.3 19.2C11.96 19.2 11.6752 19.0848 11.4456 18.8544C11.2152 18.6248 11.1 18.34 11.1 18C11.1 17.66 11.2152 17.3752 11.4456 17.1456C11.6752 16.9152 11.96 16.8 12.3 16.8C12.64 16.8 12.9252 16.9152 13.1556 17.1456C13.3852 17.3752 13.5 17.66 13.5 18C13.5 18.34 13.3852 18.6248 13.1556 18.8544C12.9252 19.0848 12.64 19.2 12.3 19.2ZM7.5 19.2C7.16 19.2 6.8748 19.0848 6.6444 18.8544C6.4148 18.6248 6.3 18.34 6.3 18C6.3 17.66 6.4148 17.3752 6.6444 17.1456C6.8748 16.9152 7.16 16.8 7.5 16.8C7.84 16.8 8.1252 16.9152 8.3556 17.1456C8.5852 17.3752 8.7 17.66 8.7 18C8.7 18.34 8.5852 18.6248 8.3556 18.8544C8.1252 19.0848 7.84 19.2 7.5 19.2ZM17.1 19.2C16.76 19.2 16.4752 19.0848 16.2456 18.8544C16.0152 18.6248 15.9 18.34 15.9 18C15.9 17.66 16.0152 17.3752 16.2456 17.1456C16.4752 16.9152 16.76 16.8 17.1 16.8C17.44 16.8 17.7248 16.9152 17.9544 17.1456C18.1848 17.3752 18.3 17.66 18.3 18C18.3 18.34 18.1848 18.6248 17.9544 18.8544C17.7248 19.0848 17.44 19.2 17.1 19.2ZM3.9 24C3.24 24 2.6748 23.7652 2.2044 23.2956C1.7348 22.8252 1.5 22.26 1.5 21.6V4.8C1.5 4.14 1.7348 3.5752 2.2044 3.1056C2.6748 2.6352 3.24 2.4 3.9 2.4H5.1V0H7.5V2.4H17.1V0H19.5V2.4H20.7C21.36 2.4 21.9252 2.6352 22.3956 3.1056C22.8652 3.5752 23.1 4.14 23.1 4.8V21.6C23.1 22.26 22.8652 22.8252 22.3956 23.2956C21.9252 23.7652 21.36 24 20.7 24H3.9ZM3.9 21.6H20.7V9.6H3.9V21.6Z" fill="#42F09E"/>
</g>
<defs>
<clipPath id="clip0_5109_52924">
<rect width="24" height="24" fill="white"/>
</clipPath>
</defs>
</svg>
