<svg viewBox="0 0 38 38" fill="none" xmlns="http://www.w3.org/2000/svg">
<rect width="38" height="38" rx="19" fill="currentColor"/>
<path d="M19 24.5C20.25 24.5 21.3127 24.0627 22.188 23.188C23.0633 22.3133 23.5007 21.2507 23.5 20C23.4993 18.7493 23.062 17.687 22.188 16.813C21.314 15.939 20.2513 15.5013 19 15.5C17.7487 15.4987 16.6863 15.9363 15.813 16.813C14.9397 17.6897 14.502 18.752 14.5 20C14.498 21.248 14.9357 22.3107 15.813 23.188C16.6903 24.0653 17.7527 24.5027 19 24.5ZM19 22.5C18.3 22.5 17.7083 22.2583 17.225 21.775C16.7417 21.2917 16.5 20.7 16.5 20C16.5 19.3 16.7417 18.7083 17.225 18.225C17.7083 17.7417 18.3 17.5 19 17.5C19.7 17.5 20.2917 17.7417 20.775 18.225C21.2583 18.7083 21.5 19.3 21.5 20C21.5 20.7 21.2583 21.2917 20.775 21.775C20.2917 22.2583 19.7 22.5 19 22.5ZM11 28C10.45 28 9.97933 27.8043 9.588 27.413C9.19667 27.0217 9.00067 26.5507 9 26V14C9 13.45 9.196 12.9793 9.588 12.588C9.98 12.1967 10.4507 12.0007 11 12H14.15L15.4 10.65C15.5833 10.45 15.8043 10.2917 16.063 10.175C16.3217 10.0583 16.5923 10 16.875 10H21.125C21.4083 10 21.6793 10.0583 21.938 10.175C22.1967 10.2917 22.4173 10.45 22.6 10.65L23.85 12H27C27.55 12 28.021 12.196 28.413 12.588C28.805 12.98 29.0007 13.4507 29 14V26C29 26.55 28.8043 27.021 28.413 27.413C28.0217 27.805 27.5507 28.0007 27 28H11ZM11 26H27V14H22.95L21.125 12H16.875L15.05 14H11V26Z" fill="#FEFEFE"/>
</svg>
