<svg viewBox="0 0 32 32" fill="none" xmlns="http://www.w3.org/2000/svg">
<path d="M21.9432 19.2C21.9009 19.1028 21.843 19.0135 21.7719 18.936L18.1671 15.2C18.0182 15.0689 17.8266 15.0004 17.6307 15.0082C17.4347 15.016 17.2489 15.0995 17.1102 15.2419C16.9715 15.3844 16.8903 15.5754 16.8827 15.7768C16.8752 15.9781 16.9418 16.175 17.0694 16.328L19.3428 18.664H13.8928C13.2734 18.664 12.6793 18.4111 12.2412 17.961C11.8032 17.511 11.5571 16.9005 11.5571 16.264V8.8C11.5571 8.58783 11.4751 8.38434 11.3291 8.23431C11.1831 8.08429 10.9851 8 10.7786 8C10.5721 8 10.374 8.08429 10.228 8.23431C10.082 8.38434 10 8.58783 10 8.8V16.296C10 17.3569 10.4101 18.3743 11.1402 19.1244C11.8702 19.8746 12.8604 20.296 13.8928 20.296H19.3428L17.0694 22.632C16.9964 22.7064 16.9385 22.7948 16.8989 22.8923C16.8594 22.9898 16.8391 23.0944 16.8391 23.2C16.8391 23.3056 16.8594 23.4102 16.8989 23.5076C16.9385 23.6051 16.9964 23.6936 17.0694 23.768C17.1421 23.8421 17.2284 23.9008 17.3233 23.9406C17.4181 23.9804 17.5197 24.0006 17.6221 24C17.8264 23.9991 18.0221 23.9158 18.1671 23.768L21.7719 20.064C21.8456 19.9886 21.9038 19.8989 21.9432 19.8C22.0189 19.6076 22.0189 19.3924 21.9432 19.2Z" fill="currentColor"/>
</svg>
