<svg viewBox="0 0 16 16" fill="none" xmlns="http://www.w3.org/2000/svg">
<path d="M6.36744 10.1L12.0174 4.45C12.1508 4.31667 12.3063 4.25 12.4841 4.25C12.6619 4.25 12.8174 4.31667 12.9508 4.45C13.0841 4.58333 13.1508 4.74178 13.1508 4.92533C13.1508 5.10889 13.0841 5.26711 12.9508 5.4L6.8341 11.5333C6.70077 11.6667 6.54522 11.7333 6.36744 11.7333C6.18966 11.7333 6.03411 11.6667 5.90077 11.5333L3.0341 8.66667C2.90077 8.53333 2.83677 8.37511 2.8421 8.192C2.84744 8.00889 2.91699 7.85044 3.05077 7.71667C3.18455 7.58289 3.34299 7.51622 3.5261 7.51667C3.70922 7.51711 3.86744 7.58378 4.00077 7.71667L6.36744 10.1Z" fill="currentColor"/>
</svg>
