<svg width="56" height="46" viewBox="0 0 56 46" fill="none" xmlns="http://www.w3.org/2000/svg">
<path d="M26.32 25.16L23.74 22.58C23.52 22.36 23.24 22.25 22.9 22.25C22.56 22.25 22.28 22.36 22.06 22.58C21.84 22.8 21.73 23.08 21.73 23.42C21.73 23.76 21.84 24.04 22.06 24.26L25.48 27.68C25.72 27.92 26 28.04 26.32 28.04C26.64 28.04 26.92 27.92 27.16 27.68L33.94 20.9C34.16 20.68 34.27 20.4 34.27 20.06C34.27 19.72 34.16 19.44 33.94 19.22C33.72 19 33.44 18.89 33.1 18.89C32.76 18.89 32.48 19 32.26 19.22L26.32 25.16ZM28 35C26.34 35 24.78 34.6848 23.32 34.0544C21.86 33.424 20.59 32.5692 19.51 31.49C18.43 30.4108 17.5752 29.1408 16.9456 27.68C16.316 26.2192 16.0008 24.6592 16 23C15.9992 21.3408 16.3144 19.7808 16.9456 18.32C17.5768 16.8592 18.4316 15.5892 19.51 14.51C20.5884 13.4308 21.8584 12.576 23.32 11.9456C24.7816 11.3152 26.3416 11 28 11C29.6584 11 31.2184 11.3152 32.68 11.9456C34.1416 12.576 35.4116 13.4308 36.49 14.51C37.5684 15.5892 38.4236 16.8592 39.0556 18.32C39.6876 19.7808 40.0024 21.3408 40 23C39.9976 24.6592 39.6824 26.2192 39.0544 27.68C38.4264 29.1408 37.5716 30.4108 36.49 31.49C35.4084 32.5692 34.1384 33.4244 32.68 34.0556C31.2216 34.6868 29.6616 35.0016 28 35Z" fill="#C5C7CC"/>
</svg>
