<svg width="24" height="24" viewBox="0 0 24 24" fill="none" xmlns="http://www.w3.org/2000/svg">
<path fill-rule="evenodd" clip-rule="evenodd" d="M5.32263 5.3504C5.52947 5.14423 5.80986 5.02843 6.1022 5.02843C6.39454 5.02843 6.67492 5.14423 6.88177 5.3504L11.9858 10.444L17.0897 5.3504C17.1907 5.24224 17.3125 5.15548 17.4478 5.09531C17.5832 5.03514 17.7292 5.00278 17.8774 5.00017C18.0255 4.99756 18.1726 5.02476 18.31 5.08013C18.4474 5.1355 18.5721 5.21791 18.6769 5.32245C18.7816 5.427 18.8642 5.55152 18.9197 5.68861C18.9752 5.82569 19.0024 5.97253 18.9998 6.12035C18.9972 6.26817 18.9648 6.41395 18.9045 6.549C18.8442 6.68405 18.7573 6.80559 18.6489 6.90638L13.5449 12L18.6489 17.0936C18.7573 17.1944 18.8442 17.316 18.9045 17.451C18.9648 17.586 18.9972 17.7318 18.9998 17.8797C19.0024 18.0275 18.9752 18.1743 18.9197 18.3114C18.8642 18.4485 18.7816 18.573 18.6769 18.6775C18.5721 18.7821 18.4474 18.8645 18.31 18.9199C18.1726 18.9752 18.0255 19.0024 17.8774 18.9998C17.7292 18.9972 17.5832 18.9649 17.4478 18.9047C17.3125 18.8445 17.1907 18.7578 17.0897 18.6496L11.9858 13.556L6.88177 18.6496C6.67264 18.8441 6.39605 18.9499 6.11025 18.9449C5.82446 18.9399 5.55178 18.8243 5.34966 18.6226C5.14754 18.4209 5.03176 18.1488 5.02672 17.8636C5.02168 17.5784 5.12776 17.3023 5.32263 17.0936L10.4266 12L5.32263 6.90638C5.11604 6.69995 5 6.42014 5 6.12839C5 5.83664 5.11604 5.55683 5.32263 5.3504Z" fill="black"/>
</svg>
