<svg width="24" height="24" viewBox="0 0 24 24" fill="none" xmlns="http://www.w3.org/2000/svg">
<g clip-path="url(#clip0_3855_19828)">
<path fill-rule="evenodd" clip-rule="evenodd" d="M1.50698 1.55063C1.83202 1.22665 2.27263 1.04468 2.73202 1.04468C3.19142 1.04468 3.63202 1.22665 3.95706 1.55063L11.9776 9.55489L19.9982 1.55063C20.1569 1.38066 20.3483 1.24432 20.5609 1.14977C20.7736 1.05521 21.0031 1.00437 21.2359 1.00027C21.4686 0.996171 21.6998 1.0389 21.9157 1.12591C22.1316 1.21292 22.3276 1.34243 22.4923 1.50671C22.6569 1.67099 22.7866 1.86668 22.8738 2.0821C22.961 2.29752 23.0038 2.52826 22.9997 2.76055C22.9956 2.99284 22.9447 3.22193 22.8499 3.43414C22.7552 3.64636 22.6186 3.83735 22.4482 3.99574L14.4277 12L22.4482 20.0043C22.6186 20.1626 22.7552 20.3536 22.8499 20.5659C22.9447 20.7781 22.9956 21.0072 22.9997 21.2395C23.0038 21.4717 22.961 21.7025 22.8738 21.9179C22.7866 22.1333 22.6569 22.329 22.4923 22.4933C22.3276 22.6576 22.1316 22.7871 21.9157 22.8741C21.6998 22.9611 21.4686 23.0038 21.2359 22.9997C21.0031 22.9956 20.7736 22.9448 20.5609 22.8502C20.3483 22.7557 20.1569 22.6193 19.9982 22.4494L11.9776 14.4451L3.95706 22.4494C3.62844 22.755 3.19379 22.9213 2.74468 22.9134C2.29558 22.9055 1.86708 22.7239 1.54946 22.407C1.23185 22.09 1.04991 21.6624 1.04199 21.2142C1.03406 20.766 1.20077 20.3322 1.50698 20.0043L9.52753 12L1.50698 3.99574C1.18235 3.67136 1 3.23164 1 2.77318C1 2.31472 1.18235 1.87501 1.50698 1.55063Z" fill="#C5C7CC"/>
</g>
<defs>
<clipPath id="clip0_3855_19828">
<rect width="24" height="24" fill="white"/>
</clipPath>
</defs>
</svg>
