<svg  viewBox="0 0 20 20" fill="none" xmlns="http://www.w3.org/2000/svg">
<g clip-path="url(#clip0_3306_34555)">
<path fill-rule="evenodd" clip-rule="evenodd" d="M0.460893 0.500572C0.756385 0.206047 1.15694 0.0406154 1.57457 0.0406154C1.9922 0.0406154 2.39275 0.206047 2.68824 0.500572L9.97965 7.77718L17.2711 0.500572C17.4153 0.346051 17.5893 0.222113 17.7826 0.136153C17.976 0.0501929 18.1846 0.00397069 18.3962 0.000244765C18.6079 -0.00348116 18.818 0.0353651 19.0143 0.114466C19.2105 0.193567 19.3888 0.311303 19.5384 0.460649C19.6881 0.609995 19.806 0.787892 19.8853 0.983727C19.9646 1.17956 20.0035 1.38932 19.9998 1.6005C19.996 1.81167 19.9497 2.01993 19.8636 2.21286C19.7774 2.40578 19.6532 2.57941 19.4984 2.7234L12.207 10L19.4984 17.2766C19.6532 17.4206 19.7774 17.5942 19.8636 17.7871C19.9497 17.9801 19.996 18.1883 19.9998 18.3995C20.0035 18.6107 19.9646 18.8204 19.8853 19.0163C19.806 19.2121 19.6881 19.39 19.5384 19.5393C19.3888 19.6887 19.2105 19.8064 19.0143 19.8855C18.818 19.9646 18.6079 20.0035 18.3962 19.9998C18.1846 19.996 17.976 19.9498 17.7826 19.8638C17.5893 19.7779 17.4153 19.6539 17.2711 19.4994L9.97965 12.2228L2.68824 19.4994C2.38949 19.7772 1.99436 19.9285 1.58608 19.9213C1.1778 19.9141 0.788253 19.749 0.499511 19.4609C0.210769 19.1727 0.0453734 18.784 0.0381698 18.3765C0.0309662 17.9691 0.182517 17.5747 0.460893 17.2766L7.7523 10L0.460893 2.7234C0.165768 2.4285 0 2.02877 0 1.61198C0 1.1952 0.165768 0.795464 0.460893 0.500572Z" fill="currentColor"/>
</g>
<defs>
<clipPath id="clip0_3306_34555">
<rect width="20" height="20" fill="white"/>
</clipPath>
</defs>
</svg>
