<svg  viewBox="0 0 28 28" fill="none" xmlns="http://www.w3.org/2000/svg">
<path d="M13.9987 25.6663C7.5552 25.6663 2.33203 20.4432 2.33203 13.9997C2.33203 7.55618 7.5552 2.33301 13.9987 2.33301C20.4422 2.33301 25.6654 7.55618 25.6654 13.9997C25.6654 20.4432 20.4422 25.6663 13.9987 25.6663ZM13.9987 23.333C16.4741 23.333 18.848 22.3497 20.5984 20.5993C22.3487 18.849 23.332 16.475 23.332 13.9997C23.332 11.5243 22.3487 9.15035 20.5984 7.40001C18.848 5.64967 16.4741 4.66634 13.9987 4.66634C11.5233 4.66634 9.14937 5.64967 7.39903 7.40001C5.6487 9.15035 4.66536 11.5243 4.66536 13.9997C4.66536 16.475 5.6487 18.849 7.39903 20.5993C9.14937 22.3497 11.5233 23.333 13.9987 23.333ZM12.832 14.9237C12.2179 14.6556 11.7148 14.1843 11.4073 13.589C11.0998 12.9936 11.0067 12.3105 11.1436 11.6546C11.2805 10.9987 11.639 10.4099 12.159 9.98721C12.679 9.56456 13.3286 9.33384 13.9987 9.33384C14.6688 9.33384 15.3184 9.56456 15.8384 9.98721C16.3584 10.4099 16.7169 10.9987 16.8538 11.6546C16.9907 12.3105 16.8976 12.9936 16.5901 13.589C16.2826 14.1843 15.7795 14.6556 15.1654 14.9237V18.6663H12.832V14.9237Z" fill="currentColor"/>
</svg>
