<svg viewBox="0 0 24 24" fill="none" xmlns="http://www.w3.org/2000/svg">
<path d="M11.9929 14.6316L4.24116 6.89474C3.9775 6.63158 3.66989 6.50421 3.31833 6.51264C2.96678 6.52106 2.65916 6.6572 2.3955 6.92106C2.13183 7.18492 2 7.49193 2 7.84211C2 8.19228 2.13183 8.4993 2.3955 8.76316L10.4901 16.8684C10.701 17.0789 10.9383 17.2368 11.202 17.3421C11.4656 17.4474 11.7293 17.5 11.9929 17.5C12.2566 17.5 12.5203 17.4474 12.7839 17.3421C13.0476 17.2368 13.2849 17.0789 13.4958 16.8684L21.6168 8.76316C21.8804 8.5 22.008 8.18842 21.9996 7.82842C21.9912 7.46842 21.8548 7.1572 21.5904 6.89474C21.326 6.63228 21.0184 6.50071 20.6676 6.5C20.3167 6.4993 20.0091 6.63088 19.7447 6.89474L11.9929 14.6316Z" fill="currentColor"/>
</svg>
