<svg width="24" height="24" viewBox="0 0 24 24" fill="none" xmlns="http://www.w3.org/2000/svg">
<path d="M12 14C11.7167 14 11.4793 13.904 11.288 13.712C11.0967 13.52 11.0007 13.2827 11 13V6C11 5.71667 11.096 5.47934 11.288 5.288C11.48 5.09667 11.7173 5.00067 12 5C12.2827 4.99934 12.5203 5.09534 12.713 5.288C12.9057 5.48067 13.0013 5.718 13 6V13C13 13.2833 12.904 13.521 12.712 13.713C12.52 13.905 12.2827 14.0007 12 14ZM12 19C11.7167 19 11.4793 18.904 11.288 18.712C11.0967 18.52 11.0007 18.2827 11 18C10.9993 17.7173 11.0953 17.48 11.288 17.288C11.4807 17.096 11.718 17 12 17C12.282 17 12.5197 17.096 12.713 17.288C12.9063 17.48 13.002 17.7173 13 18C12.998 18.2827 12.902 18.5203 12.712 18.713C12.522 18.9057 12.2847 19.0013 12 19Z" fill="#FF6700"/>
</svg>
