<svg width="28" height="24" viewBox="0 0 28 24" fill="none" xmlns="http://www.w3.org/2000/svg">
<g clip-path="url(#clip0_3024_66335)">
<path d="M26.832 22.4997V20.1664C26.8313 19.1324 26.4871 18.1279 25.8536 17.3107C25.2201 16.4935 24.3332 15.9099 23.332 15.6514" stroke="currentColor" stroke-width="2.5" stroke-linecap="round" stroke-linejoin="round"/>
<path d="M19.8346 22.5V20.1667C19.8346 18.929 19.343 17.742 18.4678 16.8668C17.5926 15.9917 16.4056 15.5 15.168 15.5H5.83464C4.59696 15.5 3.40997 15.9917 2.5348 16.8668C1.65963 17.742 1.16797 18.929 1.16797 20.1667V22.5" stroke="currentColor" stroke-width="2.5" stroke-linecap="round" stroke-linejoin="round"/>
<path d="M18.668 1.65137C19.6718 1.90839 20.5615 2.49219 21.1969 3.31073C21.8322 4.12927 22.1771 5.136 22.1771 6.1722C22.1771 7.2084 21.8322 8.21513 21.1969 9.03367C20.5615 9.85222 19.6718 10.436 18.668 10.693" stroke="currentColor" stroke-width="2.5" stroke-linecap="round" stroke-linejoin="round"/>
<path d="M10.4987 10.8333C13.076 10.8333 15.1654 8.744 15.1654 6.16667C15.1654 3.58934 13.076 1.5 10.4987 1.5C7.92137 1.5 5.83203 3.58934 5.83203 6.16667C5.83203 8.744 7.92137 10.8333 10.4987 10.8333Z" stroke="currentColor" stroke-width="2.5" stroke-linecap="round" stroke-linejoin="round"/>
</g>
<defs>
<clipPath id="clip0_3024_66335">
<rect width="28" height="28" fill="white" transform="translate(0 -2)"/>
</clipPath>
</defs>
</svg>
