<svg width="24" height="24" viewBox="0 0 24 24" fill="none" xmlns="http://www.w3.org/2000/svg">
<g clip-path="url(#clip0_2881_14466)">
<path d="M2.13333 14.5062C3.51111 13.7958 4.91111 13.2632 6.33333 12.9085C7.75556 12.5537 9.2 12.3759 10.6667 12.375C10.7556 12.375 10.8333 12.3695 10.9 12.3585C10.9667 12.3475 11.0444 12.353 11.1333 12.375C11.5111 12.4667 11.7947 12.6844 11.984 13.0281C12.1733 13.3719 12.212 13.7385 12.1 14.1281C11.988 14.5177 11.7716 14.7872 11.4507 14.9366C11.1298 15.086 10.7796 15.1488 10.4 15.125C9.2 15.0562 8.00578 15.1997 6.81733 15.5554C5.62889 15.911 4.46756 16.3863 3.33333 16.9812C3.13333 17.0958 2.972 17.2562 2.84933 17.4625C2.72667 17.6687 2.66578 17.8979 2.66667 18.15V19.25H11.5333C11.9778 19.25 12.3111 19.3934 12.5333 19.6804C12.7556 19.9673 12.8667 20.2822 12.8667 20.625C12.8667 20.9678 12.7556 21.2831 12.5333 21.571C12.3111 21.8588 11.9778 22.0018 11.5333 22H2.66667C1.93333 22 1.30578 21.7309 0.784 21.1929C0.262222 20.6548 0.000888889 20.0072 0 19.25V18.15C0 17.3708 0.194667 16.6549 0.584 16.0022C0.973334 15.3496 1.48978 14.8509 2.13333 14.5062ZM10.6667 11C9.2 11 7.94444 10.4615 6.9 9.38437C5.85556 8.30729 5.33333 7.0125 5.33333 5.5C5.33333 3.9875 5.85556 2.69271 6.9 1.61562C7.94444 0.538541 9.2 0 10.6667 0C12.1333 0 13.3889 0.538541 14.4333 1.61562C15.4778 2.69271 16 3.9875 16 5.5C16 7.0125 15.4778 8.30729 14.4333 9.38437C13.3889 10.4615 12.1333 11 10.6667 11ZM10.6667 8.24999C11.4 8.24999 12.028 7.98095 12.5507 7.44287C13.0733 6.90479 13.3342 6.25716 13.3333 5.5C13.3324 4.74283 13.0716 4.09566 12.5507 3.5585C12.0298 3.02133 11.4018 2.75183 10.6667 2.75C9.93156 2.74816 9.304 3.01766 8.784 3.5585C8.264 4.09933 8.00267 4.7465 8 5.5C7.99733 6.2535 8.25867 6.90112 8.784 7.44287C9.30933 7.98462 9.93689 8.25366 10.6667 8.24999ZM18.5333 14.025C18.9778 13.5667 19.3836 13.1771 19.7507 12.8562C20.1178 12.5354 20.6231 12.375 21.2667 12.375C22.0889 12.375 22.7502 12.6674 23.2507 13.2522C23.7511 13.8371 24.0009 14.4952 24 15.2267C24 15.5705 23.9333 15.9142 23.8 16.258C23.6667 16.6017 23.4667 16.9111 23.2 17.1861L19.4667 21.0361C19.2 21.3111 18.8889 21.4486 18.5333 21.4486C18.1778 21.4486 17.8667 21.3111 17.6 21.0361L13.8667 17.1861C13.5778 16.8882 13.3724 16.5674 13.2507 16.2236C13.1289 15.8799 13.0676 15.5361 13.0667 15.1924C13.0667 14.459 13.3222 13.8059 13.8333 13.233C14.3444 12.6601 15 12.3741 15.8 12.375C16.4222 12.375 16.9111 12.5239 17.2667 12.8219C17.6222 13.1198 18.0444 13.5208 18.5333 14.025Z" fill="#4B4C50"/>
</g>
<defs>
<clipPath id="clip0_2881_14466">
<rect width="24" height="24" fill="white"/>
</clipPath>
</defs>
</svg>
