<svg viewBox="0 0 18 18" fill="none" xmlns="http://www.w3.org/2000/svg">
<path d="M16.4997 10.0628C16.4997 9.68772 16.196 9.38018 15.8098 9.36143C15.4998 9.34643 14.7286 9.5427 14.2923 9.33768C13.2161 8.83136 8.78012 6.49607 8.78012 6.49607C8.39014 6.28479 7.43394 5.97226 6.94897 6.09352L3.41165 7.5037C3.06667 7.58996 2.78669 7.79873 2.60795 8.07002C2.47795 8.21754 2.33546 9.24266 2.14047 10.174C1.94548 11.1054 1.70674 11.7217 1.70674 11.7217C1.51425 12.4318 2.07547 12.9081 2.5742 12.9931C3.07292 13.0781 3.72539 12.7719 3.91788 12.0605L4.32786 10.0928C4.3941 9.77273 4.65784 9.5277 4.98782 9.47894L6.23401 9.52395L5.79528 11.768C5.79528 11.768 8.01516 14.6096 11.1537 15.2834C12.3049 15.531 13.3761 14.8109 14.2011 14.7596C14.5823 14.7359 15.3748 14.8196 15.7235 14.9209C16.111 15.0334 16.501 14.7484 16.501 14.3571V10.0628H16.4997Z" fill="url(#paint0_radial_3083_73844)"/>
<path d="M11.9614 15.469C11.1665 15.454 9.94779 15.0028 9.11034 14.6353C8.49162 14.364 7.7879 14.3365 7.14919 14.5628L6.50797 14.789C5.89925 15.004 5.21679 14.8015 4.83681 14.2928L3.57812 12.6091L14.0838 12.5879C14.0838 12.5879 13.8913 15.5065 11.9614 15.469Z" fill="#FFAA00"/>
<path d="M6.07031 10.0951L7.94771 6.99023L7.93522 7.50896C7.92272 8.03893 8.26895 8.51515 8.78892 8.68389L6.07031 10.0951Z" fill="#EDA600"/>
<path d="M3.95251 14.8712L1.80512 16.4589C1.65263 16.5714 1.46264 16.4501 1.50638 16.2676L2.0976 13.7998C2.11135 13.7436 2.13385 13.6873 2.1651 13.6373L9.28473 1.77831C9.43597 1.52703 9.7447 1.42702 9.97469 1.55704L11.0709 2.17586C11.3009 2.30588 11.3646 2.61467 11.2134 2.8672L4.10625 14.6999C4.0675 14.7674 4.015 14.8262 3.95251 14.8712Z" fill="#1E88E5"/>
<path d="M7.20396 6.4395C7.63143 6.4395 8.30515 6.66328 8.60513 6.8258C8.78637 6.92081 13.0599 9.17109 14.1323 9.6749C14.3186 9.76242 14.5486 9.80492 14.8361 9.80492C15.056 9.80492 15.271 9.78117 15.461 9.75992C15.5848 9.74616 15.7023 9.73366 15.7735 9.73366H15.791C15.9772 9.74241 16.1235 9.88618 16.1235 10.06V14.3542C16.1235 14.483 16.0047 14.568 15.8948 14.568C15.8723 14.568 15.8485 14.5643 15.826 14.558C15.461 14.4518 14.7536 14.378 14.3473 14.378C14.2848 14.378 14.2273 14.3792 14.1761 14.383C13.8211 14.4055 13.4549 14.5243 13.0674 14.6518L12.9912 14.6768C12.9399 14.693 12.8924 14.7218 12.8524 14.758C12.6099 14.9831 12.3299 15.0931 11.9987 15.0931H11.9687C11.3925 15.0818 10.38 14.7818 9.2601 14.2905C8.87262 14.1205 8.46139 14.0342 8.03641 14.0342C7.69018 14.0342 7.34895 14.093 7.02397 14.208L6.38275 14.4342C6.26276 14.4768 6.13776 14.498 6.01152 14.498C5.66529 14.498 5.33905 14.3367 5.13656 14.068L4.96657 13.8417C4.89533 13.7467 4.78408 13.6917 4.66659 13.6917C4.65409 13.6917 4.64284 13.6917 4.63034 13.6929C4.59284 13.6967 4.55534 13.6979 4.52035 13.6979C4.15787 13.6979 4.02537 13.5141 3.95788 13.3754C3.86163 13.1816 3.85038 12.9816 3.92163 12.784C3.95038 12.7053 3.95038 12.6215 3.92663 12.5453C4.00787 12.5353 4.08537 12.4978 4.14662 12.4365C4.23411 12.3477 4.33536 12.2715 4.4491 12.2102C4.4541 12.2077 4.45785 12.2052 4.4616 12.2027L6.16151 11.1913C6.25276 11.1363 6.31775 11.0463 6.33775 10.9413L6.60149 9.59489C6.62399 9.47863 6.59149 9.35861 6.51149 9.2711C6.44025 9.19234 6.339 9.14734 6.23401 9.14734C6.22276 9.14734 6.21026 9.14734 6.19901 9.14859L5.12906 9.24985C5.12282 9.2511 5.11532 9.2511 5.10907 9.25235C4.63284 9.32236 4.24661 9.6774 4.14037 10.1387L3.55915 11.9439C3.5579 11.9489 3.5554 11.9552 3.55415 11.9602C3.5479 11.9852 3.53915 12.0114 3.52665 12.0452C3.4979 12.1252 3.49665 12.209 3.5204 12.2852C3.44165 12.2952 3.36666 12.3302 3.30666 12.3877C3.15167 12.539 2.93793 12.629 2.73669 12.629C2.70169 12.629 2.66669 12.6265 2.6342 12.6203C2.43046 12.5853 2.23047 12.4578 2.12547 12.2927C2.04048 12.159 2.01798 12.0039 2.06173 11.8327C2.10672 11.7127 2.32296 11.1151 2.5042 10.2487C2.5667 9.94869 2.62295 9.64865 2.67669 9.35736C2.75419 8.93856 2.85043 8.4185 2.90918 8.28723C2.91168 8.28348 2.91543 8.27848 2.91793 8.27473C3.05292 8.07095 3.26041 7.92469 3.5004 7.86468C3.51665 7.86093 3.5329 7.85593 3.5479 7.84968L7.05771 6.4495C7.09021 6.44575 7.13771 6.4395 7.20396 6.4395ZM7.20396 6.06445C7.11021 6.06445 7.02396 6.0732 6.94897 6.09196L3.41165 7.50213C3.06667 7.58839 2.78669 7.79717 2.60795 8.06845C2.47795 8.21597 2.33546 9.2411 2.14047 10.1725C1.94548 11.1051 1.70674 11.7189 1.70674 11.7189C1.51425 12.429 2.07547 12.9053 2.5742 12.9903C2.62795 12.9991 2.68294 13.0041 2.73919 13.0041C3.02292 13.0041 3.33166 12.8891 3.5704 12.6565C3.4704 12.9341 3.47665 13.2416 3.62414 13.5404C3.81163 13.9204 4.14662 14.0717 4.52285 14.0717C4.57159 14.0717 4.62034 14.0692 4.66909 14.0642L4.83908 14.2905C5.11782 14.663 5.55904 14.8718 6.01402 14.8718C6.18026 14.8718 6.34775 14.8443 6.51024 14.7868L7.15146 14.5605C7.43894 14.4593 7.73893 14.4092 8.03891 14.4092C8.40514 14.4092 8.77137 14.4843 9.11261 14.6343C9.95006 15.0018 11.17 15.4531 11.9637 15.4681H12C12.4649 15.4681 12.8274 15.2944 13.1086 15.0331C13.5049 14.9043 13.8724 14.778 14.2011 14.7568C14.2448 14.7543 14.2948 14.753 14.3498 14.753C14.7611 14.753 15.416 14.8293 15.7235 14.9181C15.7823 14.9356 15.8398 14.9431 15.8973 14.9431C16.2197 14.9431 16.501 14.6868 16.501 14.3542V10.0612C16.501 9.68616 16.1972 9.37862 15.811 9.35986C15.7998 9.35986 15.7873 9.35862 15.776 9.35862C15.5648 9.35862 15.191 9.42987 14.8386 9.42987C14.6386 9.42987 14.4473 9.40737 14.2948 9.33611C13.2186 8.8298 8.78262 6.49451 8.78262 6.49451C8.45014 6.31573 7.71518 6.06445 7.20396 6.06445ZM3.87913 12.174C3.89288 12.1365 3.90538 12.099 3.91663 12.059L4.5041 10.2375C4.57034 9.91744 4.83408 9.6724 5.16406 9.62365L6.23276 9.52364L5.96902 10.8701L4.26911 11.8814C4.12162 11.9627 3.99037 12.0615 3.87913 12.174Z" fill="#EDA600"/>
<path d="M3.95251 14.8712L1.80512 16.4589C1.65263 16.5714 1.46264 16.4501 1.50638 16.2676L2.0976 13.7998C2.11135 13.7436 2.13385 13.6873 2.1651 13.6373L9.28473 1.77831C9.43597 1.52703 9.7447 1.42702 9.97469 1.55704L11.0709 2.17586C11.3009 2.30588 11.3646 2.61467 11.2134 2.8672L4.10625 14.6999C4.0675 14.7674 4.015 14.8262 3.95251 14.8712Z" fill="url(#paint1_linear_3083_73844)"/>
<g opacity="0.2">
<path opacity="0.2" d="M9.75565 1.87505C9.7694 1.87505 9.7819 1.87755 9.7919 1.8838L10.8881 2.50263C10.8931 2.50513 10.9093 2.51513 10.9181 2.54513C10.9231 2.56388 10.9306 2.61264 10.8931 2.6739L3.78597 14.5079C3.77097 14.5316 3.75222 14.5541 3.72972 14.5704L1.99106 15.8555L2.46228 13.8865C2.46728 13.8665 2.47478 13.8478 2.48603 13.829L9.60816 1.97131C9.64691 1.90505 9.71066 1.87505 9.75565 1.87505ZM9.75565 1.5C9.57566 1.5 9.39192 1.60126 9.28568 1.77753L2.1648 13.6353C2.13355 13.6865 2.11105 13.7415 2.0973 13.7978L1.50609 16.2656C1.47484 16.4006 1.56858 16.5019 1.68108 16.5019C1.72232 16.5019 1.76607 16.4881 1.80607 16.4581L3.95346 14.8704C4.01595 14.8242 4.06845 14.7667 4.10845 14.6992L11.2156 2.86642C11.3668 2.61514 11.3031 2.3051 11.0731 2.17508L9.97689 1.55626C9.90814 1.51875 9.8319 1.5 9.75565 1.5Z" fill="#424242"/>
</g>
<path d="M10.8344 9.05876C9.28324 8.46993 8.0833 8.55744 7.2096 9.24753C6.60463 9.72634 4.4135 11.2865 3.4523 12.3104C2.99357 12.8005 3.42105 13.3518 3.81978 13.6006C4.60099 14.0906 5.3822 14.0519 7.07961 13.0218C7.94706 12.4954 8.50328 12.9342 9.1195 13.3555C9.1195 13.3555 10.0832 14.1544 10.9319 14.4532C11.7806 14.752 13.7643 14.2932 14.428 13.288C15.1617 12.1766 13.9742 10.2514 10.8344 9.05876Z" fill="url(#paint2_radial_3083_73844)"/>
<path d="M8.96326 9.04106C9.25324 9.04106 9.56823 9.08107 9.90321 9.15983C9.57323 10.9388 10.1369 12.7428 11.4519 14.163C11.2569 14.1542 11.1306 14.1229 11.0556 14.0967C10.2819 13.8242 9.36699 13.0716 9.35824 13.0641C9.34949 13.0566 9.34074 13.0503 9.33074 13.0428L9.24574 12.9841C8.83077 12.6978 8.40079 12.4015 7.84332 12.4015C7.52583 12.4015 7.2121 12.4977 6.88462 12.6965C5.93967 13.2691 5.2972 13.5254 4.80098 13.5254C4.53224 13.5254 4.28975 13.4491 4.01727 13.2778C3.80853 13.1466 3.64854 12.9491 3.62979 12.7953C3.62229 12.7415 3.62729 12.6653 3.72478 12.5615C4.45349 11.7839 5.94717 10.6625 6.83962 9.99368C7.09961 9.79866 7.30584 9.64364 7.44084 9.53737C7.86707 9.20358 8.36454 9.04106 8.96326 9.04106ZM8.96326 8.66602C8.27579 8.66602 7.69332 8.86229 7.2096 9.24359C6.60463 9.7224 4.4135 11.2826 3.4523 12.3065C2.99357 12.7965 3.42105 13.3479 3.81978 13.5966C4.12851 13.7904 4.43724 13.9017 4.80223 13.9017C5.36095 13.9017 6.05341 13.6416 7.07961 13.0191C7.36334 12.8465 7.61333 12.7778 7.84457 12.7778C8.31829 12.7778 8.70577 13.0691 9.1195 13.3529C9.1195 13.3529 10.0832 14.1517 10.9319 14.4505C11.1044 14.5105 11.3219 14.5405 11.5669 14.5405C11.7969 14.5405 12.0493 14.5142 12.3081 14.4642C10.6869 13.0828 9.80446 11.0176 10.3469 8.89104C9.84571 8.73977 9.38574 8.66602 8.96326 8.66602Z" fill="#EDA600"/>
<defs>
<radialGradient id="paint0_radial_3083_73844" cx="0" cy="0" r="1" gradientUnits="userSpaceOnUse" gradientTransform="translate(4.33984 7.24016) scale(6.23278 6.08948)">
<stop offset="0.3533" stop-color="#FFCA28"/>
<stop offset="0.7665" stop-color="#FFB300"/>
</radialGradient>
<linearGradient id="paint1_linear_3083_73844" x1="9.42622" y1="3.32463" x2="2.89529" y2="15.079" gradientUnits="userSpaceOnUse">
<stop stop-color="#64B5F6"/>
<stop offset="1" stop-color="#2196F3"/>
</linearGradient>
<radialGradient id="paint2_radial_3083_73844" cx="0" cy="0" r="1" gradientUnits="userSpaceOnUse" gradientTransform="translate(8.94593 11.6061) scale(4.5599 4.41978)">
<stop offset="0.3533" stop-color="#FFCA28"/>
<stop offset="0.7665" stop-color="#FFB300"/>
</radialGradient>
</defs>
</svg>
