<svg width="auto" height="auto" viewBox="0 0 32 32" fill="none" xmlns="http://www.w3.org/2000/svg">
<path d="M15.9993 27.0999C15.6882 27.0999 15.3718 27.0443 15.05 26.9332C14.7282 26.8221 14.4447 26.6443 14.1993 26.3999L11.8993 24.2999C9.54379 22.1443 7.41579 20.0056 5.51535 17.8839C3.61491 15.7621 2.66513 13.423 2.66602 10.8665C2.66602 8.77765 3.36602 7.0332 4.76602 5.6332C6.16602 4.2332 7.91046 3.5332 9.99935 3.5332C11.1771 3.5332 12.2882 3.78298 13.3327 4.28254C14.3771 4.78209 15.266 5.46565 15.9993 6.3332C16.7327 5.46654 17.6216 4.78343 18.666 4.28387C19.7105 3.78431 20.8216 3.53409 21.9993 3.5332C24.0882 3.5332 25.8327 4.2332 27.2327 5.6332C28.6327 7.0332 29.3327 8.77765 29.3327 10.8665C29.3327 13.4221 28.3882 15.7665 26.4993 17.8999C24.6105 20.0332 22.466 22.1776 20.066 24.3332L17.7993 26.3999C17.5549 26.6443 17.2718 26.8221 16.95 26.9332C16.6282 27.0443 16.3113 27.0999 15.9993 27.0999ZM14.7327 8.99987C14.0882 8.08876 13.3993 7.39409 12.666 6.91587C11.9327 6.43765 11.0438 6.19898 9.99935 6.19987C8.66602 6.19987 7.5549 6.64431 6.66602 7.5332C5.77713 8.42209 5.33268 9.5332 5.33268 10.8665C5.33268 12.0221 5.74379 13.2501 6.56602 14.5505C7.38824 15.851 8.37179 17.1119 9.51668 18.3332C10.6616 19.5545 11.8393 20.699 13.05 21.7665C14.2607 22.8341 15.2438 23.7119 15.9993 24.3999C16.7549 23.711 17.7385 22.8332 18.95 21.7665C20.1616 20.6999 21.3393 19.5554 22.4833 18.3332C23.6273 17.111 24.6105 15.8501 25.4327 14.5505C26.2549 13.251 26.666 12.023 26.666 10.8665C26.666 9.5332 26.2216 8.42209 25.3327 7.5332C24.4438 6.64431 23.3327 6.19987 21.9993 6.19987C20.9549 6.19987 20.066 6.43898 19.3327 6.9172C18.5993 7.39543 17.9105 8.08965 17.266 8.99987C17.1105 9.22209 16.9216 9.38876 16.6993 9.49987C16.4771 9.61098 16.2438 9.66654 15.9993 9.66654C15.7549 9.66654 15.5216 9.61098 15.2993 9.49987C15.0771 9.38876 14.8882 9.22209 14.7327 8.99987Z" fill="currentColor"/>
</svg>
