<svg width="auto" height="auto" viewBox="0 0 24 24" fill="none" xmlns="http://www.w3.org/2000/svg">
<path d="M3.54922 12.0001L10.8992 19.3501C11.1492 19.6001 11.2702 19.8918 11.2622 20.2251C11.2542 20.5584 11.1249 20.8501 10.8742 21.1001C10.6236 21.3501 10.3319 21.4751 9.99922 21.4751C9.66655 21.4751 9.37489 21.3501 9.12422 21.1001L1.42422 13.4251C1.22422 13.2251 1.07422 13.0001 0.974219 12.7501C0.874219 12.5001 0.824219 12.2501 0.824219 12.0001C0.824219 11.7501 0.874219 11.5001 0.974219 11.2501C1.07422 11.0001 1.22422 10.7751 1.42422 10.5751L9.12422 2.87509C9.37422 2.62509 9.67022 2.50409 10.0122 2.51209C10.3542 2.52009 10.6499 2.64942 10.8992 2.90009C11.1486 3.15076 11.2736 3.44242 11.2742 3.77509C11.2749 4.10776 11.1499 4.39942 10.8992 4.65009L3.54922 12.0001Z" fill="#242628"/>
</svg>
