<svg width="32" height="32" viewBox="0 0 32 32" fill="none" xmlns="http://www.w3.org/2000/svg">
<path d="M15.9998 18.1579C14.918 18.1579 13.9985 17.7895 13.2412 17.0526C12.4839 16.3158 12.1053 15.4211 12.1053 14.3684V6.78947C12.1053 5.73684 12.4839 4.8421 13.2412 4.10526C13.9985 3.36842 14.918 3 15.9998 3C17.0816 3 18.0012 3.36842 18.7584 4.10526C19.5157 4.8421 19.8943 5.73684 19.8943 6.78947V14.3684C19.8943 15.4211 19.5157 16.3158 18.7584 17.0526C18.0012 17.7895 17.0816 18.1579 15.9998 18.1579ZM14.7017 25.7368V23.1158C12.7111 22.8421 11.0075 22.0211 9.59075 20.6526C8.17401 19.2842 7.31376 17.621 7.00999 15.6632C6.96671 15.3053 7.06408 15 7.30208 14.7474C7.54007 14.4947 7.84298 14.3684 8.2108 14.3684C8.57861 14.3684 8.88714 14.4897 9.13639 14.7322C9.38564 14.9747 9.55311 15.2745 9.63879 15.6316C9.94169 17.1053 10.6938 18.3158 11.895 19.2632C13.0963 20.2105 14.4645 20.6842 15.9998 20.6842C17.5576 20.6842 18.9315 20.2055 20.1215 19.248C21.3115 18.2905 22.058 17.0851 22.3609 15.6316C22.4474 15.2737 22.6153 14.9739 22.8646 14.7322C23.1138 14.4905 23.4219 14.3693 23.7889 14.3684C24.1558 14.3676 24.4587 14.4939 24.6976 14.7474C24.9365 15.0008 25.0338 15.3061 24.9897 15.6632C24.6868 17.5789 23.8321 19.2316 22.4258 20.621C21.0194 22.0105 19.3102 22.8421 17.298 23.1158V25.7368C17.298 26.0947 17.1734 26.3949 16.9241 26.6375C16.6749 26.88 16.3668 27.0008 15.9998 27C15.6329 26.9992 15.3248 26.8779 15.0755 26.6362C14.8263 26.3945 14.7017 26.0947 14.7017 25.7368ZM15.9998 15.6316C16.3676 15.6316 16.6762 15.5103 16.9254 15.2678C17.1747 15.0253 17.2989 14.7255 17.298 14.3684V6.78947C17.298 6.43158 17.1734 6.13179 16.9241 5.8901C16.6749 5.64842 16.3668 5.52716 15.9998 5.52632C15.6329 5.52547 15.3248 5.64674 15.0755 5.8901C14.8263 6.13347 14.7017 6.43326 14.7017 6.78947V14.3684C14.7017 14.7263 14.8263 15.0265 15.0755 15.2691C15.3248 15.5116 15.6329 15.6324 15.9998 15.6316Z" fill="currentColor"/>
</svg>
