<svg viewBox="0 0 40 40" fill="none" xmlns="http://www.w3.org/2000/svg">
<path d="M19.9998 23.334C18.6109 23.334 17.4304 22.8479 16.4581 21.8757C15.4859 20.9034 14.9998 19.7229 14.9998 18.334V8.33398C14.9998 6.9451 15.4859 5.76454 16.4581 4.79232C17.4304 3.8201 18.6109 3.33398 19.9998 3.33398C21.3887 3.33398 22.5692 3.8201 23.5415 4.79232C24.5137 5.76454 24.9998 6.9451 24.9998 8.33398V18.334C24.9998 19.7229 24.5137 20.9034 23.5415 21.8757C22.5692 22.8479 21.3887 23.334 19.9998 23.334ZM18.3331 33.334V29.8757C15.7776 29.5145 13.5904 28.4312 11.7715 26.6257C9.95258 24.8201 8.84813 22.6257 8.45813 20.0423C8.40258 19.5701 8.52758 19.1673 8.83313 18.834C9.13869 18.5007 9.52758 18.334 9.9998 18.334C10.472 18.334 10.8681 18.494 11.1881 18.814C11.5081 19.134 11.7231 19.5295 11.8331 20.0007C12.222 21.9451 13.1876 23.5423 14.7298 24.7923C16.272 26.0423 18.0287 26.6673 19.9998 26.6673C21.9998 26.6673 23.7637 26.0357 25.2915 24.7723C26.8192 23.509 27.7776 21.9184 28.1665 20.0007C28.2776 19.5284 28.4931 19.1329 28.8131 18.814C29.1331 18.4951 29.5287 18.3351 29.9998 18.334C30.4709 18.3329 30.8598 18.4995 31.1665 18.834C31.4731 19.1684 31.5981 19.5712 31.5415 20.0423C31.1526 22.5701 30.0554 24.7507 28.2498 26.584C26.4442 28.4173 24.2498 29.5145 21.6665 29.8757V33.334C21.6665 33.8062 21.5065 34.2023 21.1865 34.5223C20.8665 34.8423 20.4709 35.0018 19.9998 35.0007C19.5287 34.9995 19.1331 34.8395 18.8131 34.5207C18.4931 34.2018 18.3331 33.8062 18.3331 33.334Z" fill="currentColor"/>
</svg>
