<svg  viewBox="0 0 160 160" fill="none" xmlns="http://www.w3.org/2000/svg">
<rect width="160" height="160" rx="36" fill="#E9E9EA"/>
<g clip-path="url(#clip0_2249_33733)">
<path d="M78.002 89C83.1834 88.9969 88.2822 89.6061 93.3047 90.8271C98.318 92.046 103.273 93.8683 108.172 96.3076C109.921 97.2143 111.319 98.5145 112.406 100.284C113.472 102.02 114.002 103.895 114 105.995V110C114 111.682 113.448 113.023 112.234 114.239C111.024 115.451 109.687 116.002 108.005 116H48C46.3183 116 44.9803 115.448 43.7686 114.236C42.6324 113.1 42.0739 111.85 42.0068 110.308L42 109.995V106C42 103.894 42.5314 102.018 43.5967 100.286C44.6807 98.524 46.0745 97.2254 47.8145 96.3154C52.7168 93.8665 57.6744 92.0414 62.6904 90.8281C67.7158 89.6126 72.8173 89.0032 78.002 89ZM78 44C82.4307 44 86.1244 45.5306 89.2969 48.7031C92.4694 51.8756 94 55.5693 94 60C94 64.4307 92.4694 68.1244 89.2969 71.2969C86.1244 74.4694 82.4307 76 78 76C73.5693 76 69.8756 74.4694 66.7031 71.2969C63.5306 68.1244 62 64.4307 62 60C62 55.5693 63.5306 51.8756 66.7031 48.7031C69.8756 45.5306 73.5693 44 78 44Z" fill="#F9F9FB" stroke="#F9F9FB" stroke-width="8"/>
</g>
<defs>
<clipPath id="clip0_2249_33733">
<rect width="104" height="96" fill="white" transform="translate(28 32)"/>
</clipPath>
</defs>
</svg>
