<svg width="40" height="40" viewBox="0 0 40 40" fill="none" xmlns="http://www.w3.org/2000/svg">
<path d="M30.0013 18.3337H26.668C26.1957 18.3337 25.8002 18.1737 25.4813 17.8537C25.1624 17.5337 25.0024 17.1381 25.0013 16.667C25.0002 16.1959 25.1602 15.8003 25.4813 15.4803C25.8024 15.1603 26.198 15.0003 26.668 15.0003H30.0013V11.667C30.0013 11.1948 30.1613 10.7992 30.4813 10.4803C30.8013 10.1614 31.1969 10.0014 31.668 10.0003C32.1391 9.99921 32.5352 10.1592 32.8563 10.4803C33.1774 10.8014 33.3369 11.197 33.3346 11.667V15.0003H36.668C37.1402 15.0003 37.5363 15.1603 37.8563 15.4803C38.1763 15.8003 38.3357 16.1959 38.3346 16.667C38.3335 17.1381 38.1735 17.5342 37.8546 17.8553C37.5357 18.1764 37.1402 18.3359 36.668 18.3337H33.3346V21.667C33.3346 22.1392 33.1746 22.5353 32.8546 22.8553C32.5346 23.1753 32.1391 23.3348 31.668 23.3337C31.1969 23.3325 30.8013 23.1725 30.4813 22.8537C30.1613 22.5348 30.0013 22.1392 30.0013 21.667V18.3337ZM15.0013 20.0003C13.168 20.0003 11.5985 19.3475 10.293 18.042C8.98741 16.7364 8.33464 15.167 8.33464 13.3337C8.33464 11.5003 8.98741 9.93088 10.293 8.62533C11.5985 7.31977 13.168 6.66699 15.0013 6.66699C16.8346 6.66699 18.4041 7.31977 19.7096 8.62533C21.0152 9.93088 21.668 11.5003 21.668 13.3337C21.668 15.167 21.0152 16.7364 19.7096 18.042C18.4041 19.3475 16.8346 20.0003 15.0013 20.0003ZM1.66797 30.0003V28.667C1.66797 27.7225 1.9113 26.8548 2.39797 26.0637C2.88464 25.2725 3.53019 24.6681 4.33464 24.2503C6.05686 23.3892 7.80686 22.7437 9.58464 22.3137C11.3624 21.8837 13.168 21.6681 15.0013 21.667C16.8346 21.6659 18.6402 21.8814 20.418 22.3137C22.1957 22.7459 23.9457 23.3914 25.668 24.2503C26.4735 24.667 27.1196 25.2714 27.6063 26.0637C28.093 26.8559 28.3357 27.7237 28.3346 28.667V30.0003C28.3346 30.917 28.0085 31.702 27.3563 32.3553C26.7041 33.0087 25.9191 33.3348 25.0013 33.3337H5.0013C4.08464 33.3337 3.30019 33.0075 2.64797 32.3553C1.99575 31.7031 1.66908 30.9181 1.66797 30.0003Z" fill="#F9F9FB"/>
</svg>
