<svg width="53" height="53" viewBox="0 0 53 53" fill="none" xmlns="http://www.w3.org/2000/svg">
<g filter="url(#filter0_d_2111_26594)">
<rect x="4" y="4" width="45" height="45" rx="22.5" fill="#F9F9FB" shape-rendering="crispEdges"/>
<path d="M26.5 32C27.75 32 28.8127 31.5627 29.688 30.688C30.5633 29.8133 31.0007 28.7507 31 27.5C30.9993 26.2493 30.562 25.187 29.688 24.313C28.814 23.439 27.7513 23.0013 26.5 23C25.2487 22.9987 24.1863 23.4363 23.313 24.313C22.4397 25.1897 22.002 26.252 22 27.5C21.998 28.748 22.4357 29.8107 23.313 30.688C24.1903 31.5653 25.2527 32.0027 26.5 32ZM26.5 30C25.8 30 25.2083 29.7583 24.725 29.275C24.2417 28.7917 24 28.2 24 27.5C24 26.8 24.2417 26.2083 24.725 25.725C25.2083 25.2417 25.8 25 26.5 25C27.2 25 27.7917 25.2417 28.275 25.725C28.7583 26.2083 29 26.8 29 27.5C29 28.2 28.7583 28.7917 28.275 29.275C27.7917 29.7583 27.2 30 26.5 30ZM18.5 35.5C17.95 35.5 17.4793 35.3043 17.088 34.913C16.6967 34.5217 16.5007 34.0507 16.5 33.5V21.5C16.5 20.95 16.696 20.4793 17.088 20.088C17.48 19.6967 17.9507 19.5007 18.5 19.5H21.65L22.9 18.15C23.0833 17.95 23.3043 17.7917 23.563 17.675C23.8217 17.5583 24.0923 17.5 24.375 17.5H28.625C28.9083 17.5 29.1793 17.5583 29.438 17.675C29.6967 17.7917 29.9173 17.95 30.1 18.15L31.35 19.5H34.5C35.05 19.5 35.521 19.696 35.913 20.088C36.305 20.48 36.5007 20.9507 36.5 21.5V33.5C36.5 34.05 36.3043 34.521 35.913 34.913C35.5217 35.305 35.0507 35.5007 34.5 35.5H18.5Z" fill="#4B4C50"/>
</g>
<defs>
<filter id="filter0_d_2111_26594" x="0" y="0" width="53" height="53" filterUnits="userSpaceOnUse" color-interpolation-filters="sRGB">
<feFlood flood-opacity="0" result="BackgroundImageFix"/>
<feColorMatrix in="SourceAlpha" type="matrix" values="0 0 0 0 0 0 0 0 0 0 0 0 0 0 0 0 0 0 127 0" result="hardAlpha"/>
<feOffset/>
<feGaussianBlur stdDeviation="2"/>
<feComposite in2="hardAlpha" operator="out"/>
<feColorMatrix type="matrix" values="0 0 0 0 0 0 0 0 0 0 0 0 0 0 0 0 0 0 0.18 0"/>
<feBlend mode="normal" in2="BackgroundImageFix" result="effect1_dropShadow_2111_26594"/>
<feBlend mode="normal" in="SourceGraphic" in2="effect1_dropShadow_2111_26594" result="shape"/>
</filter>
</defs>
</svg>
