<svg width="24" height="24" viewBox="0 0 24 24" fill="none" xmlns="http://www.w3.org/2000/svg">
<path d="M12.001 14.625C13.1587 14.6243 14.2978 14.7604 15.4199 15.0332C16.5399 15.3055 17.6476 15.7124 18.7432 16.2578C19.1199 16.4532 19.421 16.7332 19.6562 17.1162C19.8863 17.4907 20.0005 17.8943 20 18.3486V19.25C20 19.6017 19.8863 19.8778 19.6318 20.1328C19.3782 20.3869 19.1028 20.5004 18.751 20.5H5.25C4.89832 20.5 4.62219 20.3868 4.36816 20.1328C4.14596 19.9106 4.03149 19.6708 4.00586 19.3779L4 19.249V18.3496C4.00007 17.8941 4.11503 17.4907 4.34473 17.1172C4.58019 16.7344 4.88099 16.4531 5.25781 16.2568C6.35272 15.7104 7.46002 15.3039 8.5791 15.0332C9.70204 14.7616 10.8424 14.6257 12.001 14.625ZM12 4.5C12.9702 4.5 13.7755 4.83409 14.4707 5.5293C15.1659 6.22451 15.5 7.02982 15.5 8C15.5 8.97017 15.1659 9.77549 14.4707 10.4707C13.7755 11.1659 12.9702 11.5 12 11.5C11.0298 11.5 10.2245 11.1659 9.5293 10.4707C8.83409 9.77549 8.5 8.97017 8.5 8C8.5 7.02983 8.83409 6.22451 9.5293 5.5293C10.2245 4.83409 11.0298 4.5 12 4.5Z" stroke="#C5C7CC" stroke-width="2"/>
</svg>
