<svg viewBox="0 0 24 24" fill="currentColor" xmlns="http://www.w3.org/2000/svg">
<path d="M14.5992 8.075C14.5992 7.35833 14.3619 6.78333 13.8872 6.35C13.4125 5.91667 12.7832 5.7 11.9992 5.7C11.5159 5.7 11.0785 5.80433 10.6872 6.013C10.2959 6.22167 9.95821 6.52567 9.67421 6.925C9.40755 7.30833 9.04488 7.52933 8.58621 7.588C8.12755 7.64667 7.73188 7.52567 7.39921 7.225C7.16588 7.00833 7.03688 6.74167 7.01221 6.425C6.98755 6.10833 7.06655 5.80833 7.24921 5.525C7.78255 4.725 8.46188 4.10433 9.28721 3.663C10.1125 3.22167 11.0165 3.00067 11.9992 3C13.6159 3 14.9285 3.45833 15.9372 4.375C16.9459 5.29167 17.4499 6.49167 17.4492 7.975C17.4492 8.725 17.2909 9.4 16.9742 10C16.6575 10.6 16.0742 11.3083 15.2242 12.125C14.6075 12.7083 14.1909 13.1627 13.9742 13.488C13.7575 13.8133 13.6159 14.184 13.5492 14.6C13.4825 15 13.3115 15.3333 13.0362 15.6C12.7609 15.8667 12.4319 16 12.0492 16C11.6665 16 11.3375 15.871 11.0622 15.613C10.7869 15.355 10.6492 15.034 10.6492 14.65C10.6492 14 10.7909 13.4043 11.0742 12.863C11.3575 12.3217 11.8325 11.7507 12.4992 11.15C13.3492 10.4 13.9119 9.821 14.1872 9.413C14.4625 9.005 14.5999 8.559 14.5992 8.075ZM11.9992 22C11.4492 22 10.9785 21.8043 10.5872 21.413C10.1959 21.0217 9.99988 20.5507 9.99921 20C9.99855 19.4493 10.1945 18.9787 10.5872 18.588C10.9799 18.1973 11.4505 18.0013 11.9992 18C12.5479 17.9987 13.0189 18.1947 13.4122 18.588C13.8055 18.9813 14.0012 19.452 13.9992 20C13.9972 20.548 13.8015 21.019 13.4122 21.413C13.0229 21.807 12.5519 22.0027 11.9992 22Z" fill="currentColor"/>
</svg>
