<svg viewBox="0 0 24 24" fill="none" xmlns="http://www.w3.org/2000/svg">
<path d="M6 18.6968L3.7 20.9968C3.38334 21.3134 3.02067 21.3844 2.612 21.2098C2.20333 21.0351 1.99933 20.7224 2 20.2718V4.69678C2 4.14678 2.196 3.67611 2.588 3.28478C2.98 2.89344 3.45067 2.69744 4 2.69678H20C20.55 2.69678 21.021 2.89278 21.413 3.28478C21.805 3.67678 22.0007 4.14744 22 4.69678V16.6968C22 17.2468 21.8043 17.7178 21.413 18.1098C21.0217 18.5018 20.5507 18.6974 20 18.6968H6ZM5.15 16.6968H20V4.69678H4V17.8218L5.15 16.6968ZM8 11.6968C8.28333 11.6968 8.521 11.6008 8.713 11.4088C8.905 11.2168 9.00067 10.9794 9 10.6968C8.99933 10.4141 8.90333 10.1768 8.712 9.98478C8.52067 9.79278 8.28333 9.69678 8 9.69678C7.71667 9.69678 7.47933 9.79278 7.288 9.98478C7.09667 10.1768 7.00067 10.4141 7 10.6968C6.99933 10.9794 7.09534 11.2171 7.288 11.4098C7.48067 11.6024 7.718 11.6981 8 11.6968ZM12 11.6968C12.2833 11.6968 12.521 11.6008 12.713 11.4088C12.905 11.2168 13.0007 10.9794 13 10.6968C12.9993 10.4141 12.9033 10.1768 12.712 9.98478C12.5207 9.79278 12.2833 9.69678 12 9.69678C11.7167 9.69678 11.4793 9.79278 11.288 9.98478C11.0967 10.1768 11.0007 10.4141 11 10.6968C10.9993 10.9794 11.0953 11.2171 11.288 11.4098C11.4807 11.6024 11.718 11.6981 12 11.6968ZM16 11.6968C16.2833 11.6968 16.521 11.6008 16.713 11.4088C16.905 11.2168 17.0007 10.9794 17 10.6968C16.9993 10.4141 16.9033 10.1768 16.712 9.98478C16.5207 9.79278 16.2833 9.69678 16 9.69678C15.7167 9.69678 15.4793 9.79278 15.288 9.98478C15.0967 10.1768 15.0007 10.4141 15 10.6968C14.9993 10.9794 15.0953 11.2171 15.288 11.4098C15.4807 11.6024 15.718 11.6981 16 11.6968Z" fill="currentColor"/>
</svg>
