<svg width="8" height="16" viewBox="0 0 8 16" fill="none" xmlns="http://www.w3.org/2000/svg">
<path d="M5.91388 8.00564L0.287083 14.2071C0.095695 14.418 0.00306368 14.6641 0.00918818 14.9453C0.0153127 15.2266 0.114323 15.4727 0.306221 15.6836C0.498119 15.8945 0.721405 16 0.976078 16C1.23075 16 1.45404 15.8945 1.64593 15.6836L7.54067 9.20796C7.69378 9.03921 7.80861 8.84937 7.88517 8.63844C7.96172 8.42751 8 8.21657 8 8.00564C8 7.79471 7.96172 7.58377 7.88517 7.37284C7.80861 7.16191 7.69378 6.97207 7.54067 6.80332L1.64593 0.306589C1.45455 0.0956556 1.22794 -0.00643591 0.966125 0.000313947C0.704308 0.0070638 0.47796 0.116186 0.287083 0.327682C0.0962057 0.539177 0.000511646 0.785266 1.43051e-06 1.06595C-0.000509262 1.34663 0.0951848 1.59272 0.287083 1.80421L5.91388 8.00564Z" fill="#101010"/>
</svg>
