<svg width="52" height="38" viewBox="0 0 52 38" fill="none" xmlns="http://www.w3.org/2000/svg">
<rect width="52" height="38" rx="19" fill="#42F09E"/>
<path d="M34.0396 9.32246C35.0556 8.96746 36.0316 9.94346 35.6766 10.9595L29.7516 27.8895C29.3666 28.9875 27.8366 29.0495 27.3646 27.9865L24.5056 21.5545L28.5296 17.5295C28.6621 17.3873 28.7342 17.1992 28.7308 17.0049C28.7274 16.8106 28.6486 16.6253 28.5112 16.4878C28.3738 16.3504 28.1884 16.2717 27.9941 16.2683C27.7998 16.2649 27.6118 16.337 27.4696 16.4695L23.4446 20.4935L17.0126 17.6345C15.9496 17.1615 16.0126 15.6325 17.1096 15.2475L34.0396 9.32246Z" fill="#FEFEFE"/>
</svg>
