<svg  viewBox="0 0 24 24" fill="none" xmlns="http://www.w3.org/2000/svg">
<g clip-path="url(#clip0_3306_34560)">
<g clip-path="url(#clip1_3306_34560)">
<path d="M21.6208 12.7919C21.4331 12.5729 21.3296 12.2915 21.3296 12C21.3296 11.7086 21.4331 11.4271 21.6208 11.2081L23.1191 9.48034C23.2842 9.29157 23.3867 9.05404 23.412 8.80184C23.4372 8.54964 23.3838 8.29573 23.2596 8.07653L20.9185 3.9251C20.7954 3.70615 20.6081 3.5326 20.3832 3.42919C20.1583 3.32577 19.9073 3.29777 19.666 3.34918L17.4653 3.80511C17.1853 3.86442 16.8938 3.81662 16.6458 3.67073C16.3978 3.52485 16.2105 3.29096 16.1192 3.01322L15.4052 0.817521C15.3266 0.579208 15.177 0.372219 14.9775 0.225812C14.7779 0.0794039 14.5385 0.000982422 14.2931 0.00163173H9.61093C9.35567 -0.0120249 9.10307 0.0603354 8.8917 0.207661C8.68033 0.354986 8.52182 0.569177 8.44038 0.817521L7.78487 3.01322C7.69357 3.29096 7.50624 3.52485 7.25825 3.67073C7.01026 3.81662 6.71875 3.86442 6.43873 3.80511L4.17957 3.34918C3.95079 3.31604 3.71755 3.35304 3.50925 3.45553C3.30095 3.55802 3.1269 3.7214 3.00902 3.9251L0.667917 8.07653C0.540514 8.29328 0.48323 8.54577 0.504253 8.7979C0.525277 9.05003 0.623532 9.2889 0.784972 9.48034L2.27157 11.2081C2.45923 11.4271 2.56273 11.7086 2.56273 12C2.56273 12.2915 2.45923 12.5729 2.27157 12.7919L0.784972 14.5197C0.623532 14.7111 0.525277 14.95 0.504253 15.2021C0.48323 15.4542 0.540514 15.7067 0.667917 15.9235L3.00902 20.0749C3.13204 20.2938 3.31935 20.4674 3.54426 20.5708C3.76916 20.6742 4.02017 20.7022 4.26151 20.6508L6.46215 20.1949C6.74216 20.1356 7.03367 20.1834 7.28166 20.3293C7.52966 20.4752 7.71698 20.709 7.80828 20.9868L8.52232 23.1825C8.60376 23.4308 8.76227 23.645 8.97364 23.7923C9.18501 23.9397 9.43761 24.012 9.69287 23.9984H14.3751C14.6205 23.999 14.8599 23.9206 15.0594 23.7742C15.259 23.6278 15.4086 23.4208 15.4871 23.1825L16.2011 20.9868C16.2924 20.709 16.4798 20.4752 16.7277 20.3293C16.9757 20.1834 17.2673 20.1356 17.5473 20.1949L19.7479 20.6508C19.9892 20.7022 20.2403 20.6742 20.4652 20.5708C20.6901 20.4674 20.8774 20.2938 21.0004 20.0749L23.3415 15.9235C23.4658 15.7043 23.5191 15.4504 23.4939 15.1982C23.4687 14.946 23.3661 14.7084 23.201 14.5197L21.6208 12.7919ZM19.8767 14.3997L20.8131 15.4795L19.3148 18.1432L17.9335 17.8552C17.0905 17.6786 16.2135 17.8253 15.4691 18.2677C14.7246 18.7101 14.1645 19.4172 13.8951 20.2549L13.4503 21.5987H10.4537L10.0323 20.2309C9.76293 19.3932 9.20285 18.6861 8.45841 18.2437C7.71397 17.8014 6.83698 17.6546 5.99393 17.8312L4.61267 18.1192L3.09096 15.4675L4.0274 14.3877C4.60326 13.7277 4.92162 12.8734 4.92162 11.988C4.92162 11.1026 4.60326 10.2483 4.0274 9.58833L3.09096 8.50848L4.58926 5.86883L5.97051 6.1568C6.81357 6.33344 7.69056 6.18665 8.435 5.74429C9.17944 5.30193 9.73952 4.5948 10.0089 3.75712L10.4537 2.40131H13.4503L13.8951 3.76912C14.1645 4.6068 14.7246 5.31393 15.4691 5.75629C16.2135 6.19865 17.0905 6.34544 17.9335 6.16879L19.3148 5.88083L20.8131 8.54447L19.8767 9.62432C19.3073 10.2827 18.9929 11.1321 18.9929 12.012C18.9929 12.8919 19.3073 13.7413 19.8767 14.3997ZM11.952 7.20065C11.026 7.20065 10.1207 7.48213 9.35074 8.00949C8.58075 8.53685 7.98062 9.2864 7.62624 10.1634C7.27185 11.0403 7.17913 12.0053 7.35979 12.9363C7.54046 13.8673 7.98639 14.7225 8.64121 15.3937C9.29603 16.0649 10.1303 16.5219 11.0386 16.7071C11.9468 16.8923 12.8883 16.7973 13.7438 16.434C14.5994 16.0708 15.3307 15.4556 15.8451 14.6664C16.3596 13.8771 16.6342 12.9492 16.6342 12C16.6342 10.7271 16.1409 9.5064 15.2628 8.60635C14.3848 7.7063 13.1938 7.20065 11.952 7.20065ZM11.952 14.3997C11.489 14.3997 11.0364 14.2589 10.6514 13.9953C10.2664 13.7316 9.96633 13.3568 9.78913 12.9183C9.61194 12.4798 9.56558 11.9973 9.65591 11.5318C9.74624 11.0664 9.96921 10.6388 10.2966 10.3032C10.624 9.96758 11.0412 9.73903 11.4953 9.64644C11.9494 9.55384 12.4202 9.60137 12.8479 9.78299C13.2757 9.96462 13.6413 10.2722 13.8986 10.6668C14.1558 11.0614 14.2931 11.5254 14.2931 12C14.2931 12.6364 14.0465 13.2468 13.6074 13.6968C13.1684 14.1469 12.5729 14.3997 11.952 14.3997Z" fill="currentColor"/>
</g>
</g>
<defs>
<clipPath id="clip0_3306_34560">
<rect width="24" height="24" fill="white"/>
</clipPath>
<clipPath id="clip1_3306_34560">
<rect width="23" height="24" fill="white" transform="translate(0.5)"/>
</clipPath>
</defs>
</svg>
