<svg width="24" height="24" viewBox="0 0 24 24" fill="none" xmlns="http://www.w3.org/2000/svg">
<path d="M19.9922 2.00391C19.8608 2.00383 19.7308 2.02965 19.6094 2.07987C19.4881 2.1301 19.3778 2.20376 19.2849 2.29663C19.192 2.38951 19.1184 2.49977 19.0682 2.62113C19.0179 2.74249 18.9921 2.87256 18.9922 3.00391V3.64063C18.1488 4.68633 17.0828 5.53082 15.8719 6.11263C14.661 6.69443 13.3356 6.99891 11.9922 7.00391H5.99219C5.1968 7.00477 4.43425 7.32112 3.87183 7.88354C3.30941 8.44597 2.99306 9.20852 2.99219 10.0039V12.0039C2.99306 12.7993 3.30941 13.5618 3.87183 14.1243C4.43425 14.6867 5.1968 15.003 5.99219 15.0039H6.47598L4.07325 20.6103C4.00795 20.7624 3.98144 20.9283 3.9961 21.0931C4.01076 21.2579 4.06612 21.4166 4.15722 21.5547C4.24832 21.6929 4.3723 21.8062 4.51804 21.8846C4.66377 21.963 4.8267 22.004 4.99219 22.0039H8.99219C9.18794 22.004 9.37941 21.9466 9.54279 21.8388C9.70618 21.731 9.83427 21.5775 9.91114 21.3975L12.6349 15.0419C13.8655 15.1323 15.0646 15.4739 16.158 16.0458C17.2514 16.6177 18.216 17.4077 18.9922 18.367V19.0039C18.9922 19.2691 19.0975 19.5235 19.2851 19.711C19.4726 19.8985 19.727 20.0039 19.9922 20.0039C20.2574 20.0039 20.5118 19.8985 20.6993 19.711C20.8868 19.5235 20.9922 19.2691 20.9922 19.0039V3.00391C20.9923 2.87256 20.9664 2.74249 20.9162 2.62113C20.866 2.49977 20.7923 2.3895 20.6995 2.29663C20.6066 2.20376 20.4963 2.1301 20.375 2.07987C20.2536 2.02964 20.1235 2.00383 19.9922 2.00391ZM5.99219 13.0039C5.72703 13.0037 5.47277 12.8983 5.28528 12.7108C5.09778 12.5233 4.99236 12.2691 4.99219 12.0039V10.0039C4.99237 9.73875 5.09778 9.4845 5.28528 9.297C5.47278 9.1095 5.72703 9.00409 5.99219 9.00391H6.99219V13.0039H5.99219ZM8.33301 20.0039H6.50879L8.65137 15.0039H10.4756L8.33301 20.0039ZM18.9922 15.5257C17.0204 13.9013 14.5469 13.0102 11.9922 13.0039H8.99219V9.00386H11.9922C14.5469 8.99733 17.0205 8.10601 18.9922 6.48152V15.5257Z" fill="#4B4C50"/>
</svg>
