<svg viewBox="0 0 18 18" fill="none" xmlns="http://www.w3.org/2000/svg">
<path d="M5.2695 14.3144C3.34086 14.3144 1.77344 11.9303 1.77344 8.99996C1.77344 6.0696 3.34211 3.68555 5.2695 3.68555C7.1969 3.68555 8.76557 6.0696 8.76557 8.99996C8.76557 11.9303 7.1969 14.3144 5.2695 14.3144Z" fill="#FAFAFA"/>
<path d="M5.26949 3.93561C6.0982 3.93561 6.89191 4.43567 7.50312 5.34454C8.15559 6.31341 8.51557 7.61232 8.51557 8.99999C8.51557 10.3877 8.15559 11.6866 7.50312 12.6554C6.89191 13.5643 6.0982 14.0644 5.26949 14.0644C4.44078 14.0644 3.64708 13.5643 3.03586 12.6554C2.38214 11.6866 2.02341 10.3877 2.02341 8.99999C2.02341 7.61232 2.38339 6.31341 3.03586 5.34454C3.64708 4.43567 4.43953 3.93561 5.26949 3.93561ZM5.26949 3.43555C3.20085 3.43555 1.52344 5.92711 1.52344 8.99999C1.52344 12.0729 3.20085 14.5644 5.26949 14.5644C7.33813 14.5644 9.01554 12.0729 9.01554 8.99999C9.01554 5.92711 7.33813 3.43555 5.26949 3.43555Z" fill="#B0BEC5"/>
<path d="M4.20239 8.48085C3.86491 8.16337 3.93991 7.5334 4.37239 7.07343C4.39488 7.04968 4.41738 7.02718 4.44113 7.00593C4.24864 6.89718 4.0374 6.83594 3.81491 6.83594C2.91621 6.83594 2.1875 7.82713 2.1875 9.04832C2.1875 10.2695 2.91621 11.2607 3.81491 11.2607C4.71362 11.2607 5.44233 10.2695 5.44233 9.04832C5.44233 8.82958 5.41858 8.61709 5.37483 8.4171C4.96985 8.70834 4.48613 8.74709 4.20239 8.48085Z" fill="url(#paint0_linear_3083_74376)"/>
<path d="M12.7265 14.5644C14.7954 14.5644 16.4726 12.0732 16.4726 8.99999C16.4726 5.92683 14.7954 3.43555 12.7265 3.43555C10.6576 3.43555 8.98047 5.92683 8.98047 8.99999C8.98047 12.0732 10.6576 14.5644 12.7265 14.5644Z" fill="#EEEEEE"/>
<path d="M12.7265 14.3144C10.7991 14.3144 9.23047 11.9303 9.23047 8.99996C9.23047 6.0696 10.7991 3.68555 12.7265 3.68555C14.6539 3.68555 16.2226 6.0696 16.2226 8.99996C16.2226 11.9303 14.6552 14.3144 12.7265 14.3144Z" fill="#FAFAFA"/>
<path d="M12.7265 3.93561C13.5552 3.93561 14.3489 4.43567 14.9602 5.34454C15.6126 6.31341 15.9726 7.61232 15.9726 8.99999C15.9726 10.3877 15.6126 11.6866 14.9602 12.6554C14.3489 13.5643 13.5552 14.0644 12.7265 14.0644C11.8978 14.0644 11.1041 13.5643 10.4929 12.6554C9.84042 11.6866 9.48044 10.3877 9.48044 8.99999C9.48044 7.61232 9.84042 6.31341 10.4929 5.34454C11.1041 4.43567 11.8978 3.93561 12.7265 3.93561ZM12.7265 3.43555C10.6579 3.43555 8.98047 5.92711 8.98047 8.99999C8.98047 12.0729 10.6579 14.5644 12.7265 14.5644C14.7952 14.5644 16.4726 12.0729 16.4726 8.99999C16.4726 5.92711 14.7952 3.43555 12.7265 3.43555Z" fill="#B0BEC5"/>
<path d="M11.6594 8.48085C11.3219 8.16337 11.3969 7.5334 11.8294 7.07343C11.8519 7.04968 11.8744 7.02718 11.8982 7.00593C11.7057 6.89718 11.4944 6.83594 11.2719 6.83594C10.3732 6.83594 9.64453 7.82713 9.64453 9.04832C9.64453 10.2695 10.3732 11.2607 11.2719 11.2607C12.1706 11.2607 12.8994 10.2695 12.8994 9.04832C12.8994 8.82958 12.8756 8.61709 12.8319 8.4171C12.4281 8.70834 11.9432 8.74709 11.6594 8.48085Z" fill="url(#paint1_linear_3083_74376)"/>
<defs>
<linearGradient id="paint0_linear_3083_74376" x1="3.81408" y1="6.83543" x2="3.81408" y2="11.2611" gradientUnits="userSpaceOnUse">
<stop stop-color="#424242"/>
<stop offset="1" stop-color="#212121"/>
</linearGradient>
<linearGradient id="paint1_linear_3083_74376" x1="11.2719" y1="6.83543" x2="11.2719" y2="11.2611" gradientUnits="userSpaceOnUse">
<stop stop-color="#424242"/>
<stop offset="1" stop-color="#212121"/>
</linearGradient>
</defs>
</svg>
