<svg width="24" height="24" viewBox="0 0 24 24" fill="none" xmlns="http://www.w3.org/2000/svg">
<g clip-path="url(#clip0_2035_43120)">
<path d="M10.9506 2.59886C11.0576 2.41664 11.2108 2.26546 11.395 2.16038C11.5792 2.0553 11.7879 2 12.0004 2C12.2128 2 12.4215 2.0553 12.6057 2.16038C12.7899 2.26546 12.9432 2.41664 13.0501 2.59886L15.7669 7.22851L21.043 8.36324C21.2505 8.40801 21.4426 8.506 21.6001 8.64744C21.7576 8.78888 21.875 8.96883 21.9406 9.16935C22.0062 9.36987 22.0177 9.58396 21.974 9.79027C21.9302 9.99658 21.8328 10.1879 21.6913 10.3452L18.0949 14.3409L18.6392 19.672C18.6607 19.8819 18.6263 20.0938 18.5395 20.2864C18.4527 20.479 18.3165 20.6456 18.1446 20.7696C17.9726 20.8937 17.7709 20.9707 17.5595 20.9932C17.3482 21.0156 17.1346 20.9826 16.9401 20.8974L12.0004 18.736L7.0606 20.8974C6.86612 20.9826 6.65254 21.0156 6.44119 20.9932C6.22984 20.9707 6.02811 20.8937 5.85615 20.7696C5.68419 20.6456 5.54802 20.479 5.46122 20.2864C5.37443 20.0938 5.34005 19.8819 5.36152 19.672L5.90585 14.3409L2.30941 10.3461C2.16771 10.1889 2.07005 9.99748 2.02618 9.79104C1.9823 9.5846 1.99374 9.37035 2.05935 9.16967C2.12496 8.96899 2.24246 8.78891 2.4001 8.64741C2.55774 8.5059 2.75002 8.40792 2.95774 8.36324L8.23382 7.22851L10.9506 2.59886Z" fill="#FBC223"/>
</g>
<defs>
<clipPath id="clip0_2035_43120">
<rect width="24" height="24" fill="white"/>
</clipPath>
</defs>
</svg>
