<svg width="24" height="24" viewBox="0 0 24 24" fill="none" xmlns="http://www.w3.org/2000/svg">
<path fill-rule="evenodd" clip-rule="evenodd" d="M10.9506 2.59886C11.0576 2.41664 11.2108 2.26546 11.395 2.16038C11.5792 2.0553 11.7879 2 12.0004 2C12.2128 2 12.4215 2.0553 12.6057 2.16038C12.7899 2.26546 12.9432 2.41664 13.0501 2.59886L15.7669 7.22851L21.043 8.36324C21.2505 8.40801 21.4426 8.506 21.6001 8.64744C21.7576 8.78888 21.875 8.96883 21.9406 9.16935C22.0062 9.36987 22.0177 9.58396 21.974 9.79027C21.9302 9.99658 21.8328 10.1879 21.6913 10.3452L18.0949 14.3409L18.6392 19.672C18.6607 19.8819 18.6263 20.0938 18.5395 20.2864C18.4527 20.479 18.3165 20.6456 18.1446 20.7696C17.9726 20.8937 17.7709 20.9707 17.5595 20.9932C17.3482 21.0156 17.1346 20.9826 16.9401 20.8974L12.0004 18.736L7.0606 20.8974C6.86612 20.9826 6.65254 21.0156 6.44119 20.9932C6.22984 20.9707 6.02811 20.8937 5.85615 20.7696C5.68419 20.6456 5.54802 20.479 5.46122 20.2864C5.37443 20.0938 5.34005 19.8819 5.36152 19.672L5.90585 14.3409L2.30941 10.3461C2.16771 10.1889 2.07005 9.99748 2.02618 9.79104C1.9823 9.5846 1.99374 9.37035 2.05935 9.16967C2.12496 8.96899 2.24246 8.78891 2.4001 8.64741C2.55774 8.5059 2.75002 8.40792 2.95774 8.36324L8.23382 7.22851L10.9506 2.59886ZM12.0004 4.64351L9.7521 8.47614C9.66709 8.6208 9.55266 8.7463 9.4161 8.84465C9.27955 8.94299 9.12385 9.01203 8.95894 9.04736L4.59266 9.98622L7.56896 13.293C7.79641 13.5458 7.90625 13.8816 7.87223 14.2183L7.42219 18.6309L11.5105 16.8419C11.6648 16.7744 11.8317 16.7395 12.0004 16.7395C12.1691 16.7395 12.3359 16.7744 12.4903 16.8419L16.5785 18.6309L16.1285 14.2183C16.1114 14.0517 16.1295 13.8834 16.1815 13.7241C16.2335 13.5647 16.3184 13.4179 16.4308 13.293L19.4081 9.98622L15.0418 9.04736C14.8769 9.01203 14.7212 8.94299 14.5846 8.84465C14.4481 8.7463 14.3336 8.6208 14.2486 8.47614L12.0004 4.64351Z" fill="white"/>
</svg>
